<svg xmlns="http://www.w3.org/2000/svg" width="1106" height="379" viewBox="0 0 1106 379" version="1.1"><path d="M 422 1.372 C 422 2.267, 421.550 3, 421 3 C 420.450 3, 420 3.442, 420 3.982 C 420 4.523, 418.200 7.906, 416 11.500 C 413.800 15.094, 412 18.477, 412 19.018 C 412 19.558, 411.550 20, 411 20 C 410.450 20, 410 20.434, 410 20.965 C 410 21.496, 407.525 26.011, 404.500 31 C 401.475 35.989, 399 40.244, 399 40.456 C 399 40.668, 396.750 44.469, 394 48.903 C 391.250 53.337, 389 57.423, 389 57.982 C 389 58.542, 388.550 59, 388 59 C 387.450 59, 387 59.458, 387 60.018 C 387 60.577, 384.750 64.663, 382 69.097 C 379.250 73.531, 377 77.392, 377 77.677 C 377 77.962, 374.525 82.197, 371.500 87.087 C 368.475 91.977, 366 96.173, 366 96.410 C 366 96.647, 363.750 100.469, 361 104.903 C 358.250 109.337, 355.986 113.310, 355.969 113.732 C 355.916 115.018, 352.012 117.334, 340.275 123.042 C 334.101 126.044, 329.189 128.950, 329.358 129.500 C 329.547 130.113, 335.949 130.500, 345.896 130.500 L 362.126 130.500 363.813 127.500 C 364.741 125.850, 365.770 124.275, 366.100 124 C 366.431 123.725, 368.185 120.817, 369.998 117.538 C 371.812 114.259, 374.804 109.218, 376.648 106.336 C 378.492 103.454, 380 100.854, 380 100.557 C 380 100.261, 383.527 94.277, 387.838 87.259 C 402.244 63.809, 411 48.958, 411 47.975 C 411 47.439, 411.450 47, 412 47 C 412.550 47, 413 46.558, 413 46.018 C 413 45.477, 414.800 42.094, 417 38.500 C 419.200 34.906, 421 31.523, 421 30.982 C 421 30.442, 421.398 30, 421.883 30 C 422.369 30, 423.051 29.212, 423.399 28.250 C 423.747 27.288, 424.590 25.600, 425.271 24.500 C 425.953 23.400, 427.604 20.588, 428.940 18.250 C 430.275 15.913, 431.697 14, 432.098 14 C 432.499 14, 435.218 17.038, 438.140 20.750 C 441.062 24.462, 443.688 27.725, 443.976 28 C 444.502 28.502, 452.806 38.628, 454.227 40.500 C 454.996 41.513, 457.481 44.686, 466.485 56.152 C 469.226 59.643, 471.713 62.725, 472.011 63 C 472.308 63.275, 474.115 65.524, 476.026 67.997 C 477.937 70.470, 480.252 73.395, 481.171 74.497 C 482.090 75.599, 486.579 81.225, 491.146 87 C 495.714 92.775, 499.912 97.983, 500.475 98.574 C 501.039 99.165, 502.625 101.130, 504 102.941 C 505.375 104.752, 507.850 107.864, 509.500 109.858 C 511.150 111.851, 512.843 113.936, 513.262 114.491 C 516.437 118.697, 520.646 124.094, 523.212 127.250 L 526.260 131 545.059 131 C 559.413 131, 564.170 130.684, 565.179 129.665 C 565.905 128.930, 568.075 126.365, 570 123.964 C 571.925 121.563, 574.649 118.226, 576.054 116.549 C 577.458 114.872, 579.483 112.322, 580.554 110.883 C 581.624 109.443, 586.550 103.330, 591.500 97.299 C 596.450 91.267, 601.850 84.597, 603.500 82.476 C 605.150 80.355, 607.850 76.985, 609.500 74.986 C 613.086 70.642, 617.646 64.996, 624.762 56.088 C 627.656 52.464, 630.581 48.844, 631.262 48.042 C 631.943 47.240, 635.577 42.740, 639.337 38.042 C 649.461 25.393, 652.211 22.030, 655.234 18.601 C 656.738 16.895, 657.975 15.162, 657.984 14.750 C 657.993 14.338, 658.379 14, 658.842 14 C 659.571 14, 669.009 28.861, 674.781 39.097 C 675.836 40.969, 678.567 45.545, 680.850 49.268 C 683.132 52.990, 685 56.477, 685 57.018 C 685 57.558, 685.398 58, 685.883 58 C 686.369 58, 687.031 58.787, 687.354 59.750 C 687.678 60.712, 688.388 62.175, 688.933 63 C 691.282 66.557, 699.717 80.815, 701.504 84.250 C 702.577 86.313, 703.802 88, 704.227 88 C 704.652 88, 705 88.440, 705 88.977 C 705 89.926, 710.837 99.896, 723.455 120.500 L 729.579 130.500 745.463 130.776 C 754.199 130.928, 761.751 130.649, 762.244 130.156 C 763.136 129.264, 757.564 125.471, 749.500 121.480 C 747.300 120.391, 745.275 119.271, 745 118.990 C 744.725 118.710, 742.700 117.590, 740.500 116.501 C 736.111 114.329, 732 111.109, 732 109.843 C 732 109.399, 730.200 106.094, 728 102.500 C 725.800 98.906, 724 95.737, 724 95.458 C 724 95.179, 722.200 92.101, 720 88.617 C 717.800 85.134, 716 81.770, 716 81.142 C 716 80.514, 715.550 80, 715 80 C 714.450 80, 714 79.607, 714 79.126 C 714 78.646, 711.075 73.189, 707.500 67 C 703.925 60.811, 701 55.354, 701 54.874 C 701 54.393, 700.550 54, 700 54 C 699.450 54, 699 53.486, 699 52.858 C 699 52.230, 697.200 48.866, 695 45.383 C 692.800 41.899, 691 38.821, 691 38.542 C 691 38.263, 689.200 35.094, 687 31.500 C 684.800 27.906, 683 24.523, 683 23.982 C 683 23.442, 682.602 23, 682.117 23 C 681.631 23, 680.974 22.212, 680.657 21.250 C 680.341 20.288, 679.045 17.700, 677.779 15.500 C 667.969 -1.541, 669.079 -0.175, 665.644 0.569 C 663.915 0.944, 662.275 1.549, 662 1.914 C 661.725 2.278, 658.688 3.459, 655.250 4.538 C 651.813 5.617, 649 6.787, 649 7.139 C 649 7.490, 647.370 8.083, 645.377 8.457 C 643.384 8.831, 640.909 9.556, 639.877 10.068 C 638.845 10.581, 637.106 11.450, 636.014 12 C 634.921 12.550, 633.527 13, 632.915 13 C 632.303 13, 630.384 13.633, 628.651 14.406 C 626.918 15.179, 623.250 16.606, 620.500 17.578 C 617.750 18.549, 615.050 19.635, 614.500 19.989 C 613.950 20.344, 610.800 21.502, 607.500 22.563 C 604.200 23.624, 601.275 24.720, 601 25 C 600.725 25.280, 597.800 26.389, 594.500 27.466 C 591.200 28.542, 588.275 29.711, 588 30.063 C 587.725 30.414, 586.375 30.966, 585 31.290 C 580.292 32.396, 575 34.489, 575 35.245 C 575 35.660, 574.056 36, 572.901 36 C 570.983 36, 566.137 37.777, 561.764 40.084 C 560.809 40.588, 559.527 41, 558.915 41 C 558.303 41, 556.384 41.622, 554.651 42.383 C 545.137 46.558, 546.082 46.559, 536.349 42.359 C 534.616 41.612, 532.568 41, 531.799 41 C 531.029 41, 529.973 40.609, 529.450 40.131 C 528.928 39.654, 526.250 38.474, 523.500 37.509 C 520.750 36.544, 516.637 34.931, 514.360 33.924 C 512.084 32.917, 508.934 31.785, 507.360 31.409 C 505.787 31.032, 504.050 30.400, 503.500 30.003 C 502.950 29.606, 500.250 28.465, 497.500 27.468 C 494.750 26.471, 492.050 25.345, 491.500 24.966 C 490.950 24.586, 489.180 23.960, 487.567 23.573 C 485.954 23.186, 482.832 21.999, 480.630 20.935 C 478.427 19.871, 476.146 18.997, 475.562 18.994 C 474.978 18.990, 473.375 18.402, 472 17.687 C 470.625 16.972, 466.691 15.512, 463.259 14.443 C 459.826 13.374, 457.013 12.162, 457.009 11.750 C 457.004 11.338, 456.127 11, 455.059 11 C 453.991 11, 452.864 10.589, 452.554 10.087 C 452.243 9.585, 450.192 8.870, 447.995 8.499 C 445.798 8.128, 444 7.414, 444 6.912 C 444 6.410, 443.340 6, 442.534 6 C 441.193 6, 436.013 4.021, 431.794 1.897 C 430.855 1.424, 428.268 0.747, 426.044 0.391 C 422.710 -0.142, 422 0.030, 422 1.372 M 430.079 35.750 C 428.999 37.813, 426.969 41.525, 425.566 44 C 421.115 51.851, 415.780 63.113, 416.276 63.609 C 416.794 64.127, 425.263 54.275, 429.736 47.951 C 431.256 45.801, 432.815 44.033, 433.201 44.021 C 433.586 44.010, 437.144 48.388, 441.108 53.750 C 447.704 62.675, 470.635 91.824, 471.985 93 C 472.301 93.275, 475.992 97.550, 480.188 102.500 C 490.634 114.825, 503.892 128.731, 503.951 127.427 C 504.074 124.723, 480.725 91.089, 462.199 67.285 C 447.997 49.036, 433.811 32, 432.817 32 C 432.390 32, 431.158 33.688, 430.079 35.750 M 648.763 43.250 C 626.932 69.207, 601.451 103.802, 589.102 124.250 C 578.386 141.993, 623.705 90.027, 651 53.274 L 658.500 43.175 665.706 50.837 C 673.380 58.998, 674.560 59.011, 670.444 50.890 C 667.693 45.460, 659.267 32, 658.619 32 C 658.402 32, 653.967 37.063, 648.763 43.250 M 412.427 83.330 C 412.123 84.123, 412.015 86.735, 412.187 89.136 L 412.500 93.500 417.802 93.804 L 423.103 94.108 422.802 88.304 L 422.500 82.500 417.740 82.195 C 414.305 81.975, 412.826 82.291, 412.427 83.330 M 428.427 83.330 C 428.123 84.123, 428.015 86.735, 428.187 89.136 L 428.500 93.500 433.500 93.500 L 438.500 93.500 438.500 88 L 438.500 82.500 433.740 82.195 C 430.305 81.975, 428.826 82.291, 428.427 83.330 M 649.427 83.330 C 649.123 84.123, 649.015 86.735, 649.187 89.136 L 649.500 93.500 654.500 93.500 L 659.500 93.500 659.500 88 L 659.500 82.500 654.740 82.195 C 651.305 81.975, 649.826 82.291, 649.427 83.330 M 665.427 83.330 C 665.123 84.123, 665.015 86.735, 665.187 89.136 L 665.500 93.500 670.500 93.500 L 675.500 93.500 675.500 88 L 675.500 82.500 670.740 82.195 C 667.305 81.975, 665.826 82.291, 665.427 83.330 M 412.667 98.667 C 412.300 99.033, 412 101.508, 412 104.167 L 412 109 417.500 109 L 423 109 423 103.500 L 423 98 418.167 98 C 415.508 98, 413.033 98.300, 412.667 98.667 M 428 103.448 L 428 109 433.552 109 L 439.105 109 438.802 103.750 L 438.500 98.500 433.250 98.198 L 428 97.895 428 103.448 M 649.667 98.667 C 649.300 99.033, 649 101.508, 649 104.167 L 649 109 654.500 109 L 660 109 660 103.500 L 660 98 655.167 98 C 652.508 98, 650.033 98.300, 649.667 98.667 M 665 103.500 L 665 109 670.500 109 L 676 109 676 103.500 L 676 98 670.500 98 L 665 98 665 103.500 M 301.250 197.672 L 299 198.139 299 231.570 L 299 265 307.973 265 L 316.947 265 317.223 250.250 L 317.500 235.500 325.326 250.287 L 333.152 265.073 342.326 264.787 L 351.500 264.500 351.764 232.064 C 351.928 211.910, 351.658 199.258, 351.051 198.651 C 349.952 197.552, 335.279 197.390, 334.198 198.465 C 333.814 198.846, 333.275 205.310, 333 212.829 L 332.500 226.500 325.764 213.293 C 322.060 206.029, 318.235 199.668, 317.264 199.157 C 315.114 198.026, 304.353 197.028, 301.250 197.672 M 379.372 198.212 C 373.235 200.189, 366.688 206.206, 363.168 213.107 C 360.493 218.351, 359.727 221.224, 359.285 227.680 C 358.150 244.237, 364.124 257.136, 375.657 263.026 C 380.019 265.254, 381.692 265.499, 392.500 265.488 C 401.616 265.478, 405.407 265.067, 408.276 263.778 L 412.051 262.081 411.776 246.361 L 411.500 230.642 408.500 229.792 C 406.850 229.324, 403.648 229.198, 401.384 229.512 L 397.267 230.082 396.384 238.291 L 395.500 246.500 391.947 246.799 C 385.043 247.379, 380 240.682, 380 230.933 C 380 224.612, 382.362 219.381, 386.085 217.456 C 389.811 215.530, 396.341 215.608, 400.243 217.626 C 403.347 219.231, 403.421 219.212, 406.144 216.165 C 409.052 212.910, 411.329 206.324, 410.809 202.673 C 410.332 199.319, 402.490 197.075, 391.500 197.146 C 386.550 197.178, 381.092 197.658, 379.372 198.212 M 421.571 198.571 C 420.211 199.932, 420 204.280, 420 230.990 C 420 247.955, 420.273 262.548, 420.607 263.418 C 421.130 264.781, 423.754 265, 439.572 265 C 460.363 265, 460.013 265.141, 459.986 256.816 C 459.958 247.992, 459.968 248, 449.383 248 L 440 248 440 243.500 L 440 239 446.393 239 C 453.598 239, 454 238.604, 454 231.500 C 454 224.396, 453.598 224, 446.393 224 L 440 224 440 219.500 L 440 215 449.025 215 C 457.792 215, 458.077 214.927, 459.025 212.435 C 459.561 211.024, 460 208.128, 460 206 C 460 203.872, 459.561 200.976, 459.025 199.565 L 458.050 197 440.596 197 C 426.063 197, 422.880 197.263, 421.571 198.571 M 470.237 197.707 L 467.973 198.143 468.237 231.321 L 468.500 264.500 478 264.500 L 487.500 264.500 488 252.659 L 488.500 240.817 494.319 251.900 C 500.278 263.250, 502.704 266, 506.756 266 C 509.245 266, 517.013 262.251, 520.881 259.183 L 523.261 257.294 513.631 244.127 C 508.334 236.885, 504 230.705, 504 230.393 C 504 230.081, 507.637 223.313, 512.083 215.351 C 516.529 207.390, 519.943 200.294, 519.670 199.584 C 519.057 197.984, 505.721 196.664, 501.599 197.795 C 499.128 198.473, 497.921 200.210, 493.438 209.545 L 488.177 220.500 488.088 209.725 C 488.001 199.114, 487.961 198.936, 485.435 197.975 C 482.899 197.011, 474.619 196.865, 470.237 197.707 M 547 197.887 C 534.640 201.896, 527.947 210.272, 525.972 224.200 C 523.458 241.927, 529.466 256.799, 541.657 263.026 C 545.859 265.173, 547.823 265.499, 556.500 265.491 C 564.878 265.484, 567.171 265.125, 570.634 263.280 C 582.343 257.042, 587.882 245.018, 586.722 228.359 C 586.038 218.539, 584.805 214.425, 580.723 208.345 C 575.953 201.241, 568.264 197.569, 557.573 197.288 C 553.133 197.172, 548.375 197.441, 547 197.887 M 605.500 199.310 C 602.750 200.634, 599.730 202.584, 598.788 203.645 C 591.993 211.299, 592.683 226.880, 600.118 233.678 C 601.428 234.875, 605.200 237.367, 608.500 239.215 C 614.501 242.576, 616.764 246.109, 613.674 247.295 C 611.355 248.185, 605.172 246.379, 600.932 243.574 L 596.991 240.966 595.024 244.200 C 591.901 249.336, 591.343 255.642, 593.727 258.841 C 597.203 263.504, 601.602 265.338, 610.414 265.797 C 619.867 266.290, 625.700 264.965, 629.998 261.348 C 636.780 255.641, 639.766 243.912, 636.567 235.537 C 634.518 230.170, 630.990 227.027, 621.846 222.423 C 617.923 220.447, 615 218.329, 615 217.463 C 615 215.136, 619.186 214.010, 623.617 215.145 C 625.753 215.692, 628.464 216.376, 629.642 216.666 C 631.489 217.119, 632.083 216.395, 633.942 211.425 C 638.099 200.315, 635.644 197.820, 620 197.249 C 611.598 196.943, 609.922 197.181, 605.500 199.310 M 647.236 198.036 L 644.973 198.946 645.236 231.723 L 645.500 264.500 655.250 264.786 L 665 265.072 665 252.836 C 665 245.307, 665.356 240.965, 665.927 241.550 C 666.436 242.073, 669.371 247.225, 672.449 253 C 678.555 264.458, 679.953 266, 684.241 266 C 689.235 266, 700.589 258.976, 699.630 256.479 C 699.353 255.756, 695.160 249.662, 690.313 242.937 C 685.466 236.213, 681.611 230.330, 681.747 229.865 C 681.883 229.400, 685.641 222.432, 690.099 214.382 C 695.785 204.114, 697.848 199.524, 697.008 199.005 C 695.133 197.846, 684.193 196.945, 680.049 197.608 C 676.389 198.193, 676.174 198.477, 670.745 209.854 L 665.187 221.500 665.094 209.875 L 665 198.250 661.875 197.625 C 657.481 196.746, 649.919 196.959, 647.236 198.036 M 740.500 197.882 L 736.500 198.500 736.240 221.500 C 736.012 241.695, 735.776 244.652, 734.299 245.750 C 732.076 247.403, 728.839 247.334, 726.441 245.582 C 724.645 244.271, 724.463 242.460, 724 221.332 L 723.500 198.500 713.500 198.500 L 703.500 198.500 703.200 222 C 702.808 252.717, 703.858 256.282, 715.130 262.526 C 720.130 265.295, 721.224 265.500, 731 265.500 C 740.674 265.500, 741.871 265.282, 746.216 262.728 C 752.086 259.277, 755.580 254.789, 756.919 248.980 C 758.097 243.865, 758.391 199.341, 757.250 198.690 C 755.741 197.829, 744.388 197.282, 740.500 197.882 M 762.250 197.723 C 760.462 197.945, 759 198.345, 759 198.612 C 759 198.879, 763.725 208.483, 769.500 219.953 L 780 240.809 780 252.366 L 780 263.923 783.923 264.979 C 788.688 266.262, 798.606 265.252, 800.575 263.282 C 801.649 262.208, 802 258.920, 802 249.935 L 802 238.013 811.714 218.554 C 817.057 207.852, 821.092 198.759, 820.681 198.348 C 820.270 197.936, 816.182 197.600, 811.596 197.600 C 800.518 197.600, 799.336 198.464, 794.524 210.072 L 790.684 219.337 787.071 209.419 C 783.705 200.181, 783.218 199.418, 779.978 198.306 C 776.607 197.150, 768.912 196.897, 762.250 197.723 M 551.217 217.561 C 547.686 220.033, 546 224.372, 546 230.982 C 546 240.891, 548.788 245.605, 555.273 246.657 C 562.944 247.902, 568.349 237.391, 565.903 225.985 C 564.132 217.728, 556.901 213.579, 551.217 217.561" stroke="none" fill="#f4040c" fill-rule="evenodd"/><path d="M 20 340 L 20 357 23 357 L 26 357 26 340 L 26 323 23 323 L 20 323 20 340 M 35 339.937 L 35 357 37.469 357 L 39.938 357 40.219 344.750 L 40.500 332.500 48 344.718 C 55.086 356.262, 55.679 356.938, 58.750 356.968 L 62 357 62 340 L 62 323 59.032 323 L 56.063 323 55.782 334.495 L 55.500 345.989 48.460 334.745 C 42.093 324.576, 41.112 323.470, 38.210 323.187 L 35 322.873 35 339.937 M 71 339.965 L 71 357 74 357 L 77 357 77 350 L 77 343 83.500 343 C 89.767 343, 90 342.910, 90 340.500 C 90 338.090, 89.767 338, 83.500 338 L 77 338 77 333 L 77 328 84.570 328 C 91.847 328, 92.127 327.913, 91.820 325.750 C 91.515 323.606, 91.018 323.487, 81.250 323.215 L 71 322.930 71 339.965 M 103.678 324.427 C 99.517 326.681, 97.232 329.919, 96.073 335.201 C 94.882 340.631, 95.893 347.662, 98.420 351.518 C 104.055 360.119, 117.965 360.087, 123.617 351.461 C 128.039 344.713, 126.999 332.532, 121.534 327.068 C 118.557 324.090, 117.332 323.586, 112.301 323.267 C 108.385 323.018, 105.583 323.395, 103.678 324.427 M 145 339.934 L 145 357 148 357 L 151 357 151 349.933 L 151 342.865 157.219 349.933 C 162.549 355.989, 163.908 357, 166.719 357 C 168.524 357, 170 356.728, 170 356.397 C 170 356.065, 166.819 352.189, 162.931 347.784 C 155.904 339.822, 155.873 339.763, 157.740 337.638 C 167.212 326.851, 169 324.668, 169 323.892 C 169 323.401, 167.730 323, 166.178 323 C 163.949 323, 162.108 324.414, 157.428 329.720 L 151.500 336.441 151 329.970 C 150.523 323.798, 150.373 323.485, 147.750 323.184 L 145 322.867 145 339.934 M 180 324.752 C 169.505 329.994, 169.495 350.685, 179.984 356.176 C 191.007 361.946, 203 353.724, 203 340.396 C 203 330.156, 196.626 323.003, 187.500 323.003 C 185.300 323.003, 181.925 323.790, 180 324.752 M 213.357 323.938 C 208.298 326.107, 206.326 333.742, 209.750 337.907 C 210.713 339.078, 214.650 341.040, 218.500 342.268 C 224.240 344.098, 225.559 344.915, 225.827 346.805 C 226.306 350.188, 224.258 352, 219.954 352 C 217.369 352, 215.212 351.208, 213.210 349.524 C 210.341 347.109, 210.225 347.094, 208.565 348.928 C 206.268 351.466, 208.102 354.424, 213.251 356.484 C 223.444 360.562, 232 356.069, 232 346.639 C 232 342.251, 228.133 338.775, 221.355 337.068 C 215.710 335.646, 214 334.448, 214 331.913 C 214 328.064, 220.243 326.855, 225.170 329.750 C 228.042 331.437, 228.200 331.430, 229.587 329.541 C 230.867 327.799, 230.808 327.363, 229.052 325.608 C 226.829 323.385, 217.068 322.346, 213.357 323.938 M 246.575 323.879 C 246.015 324.784, 235 355.943, 235 356.620 C 235 356.829, 236.332 357, 237.960 357 C 240.547 357, 241.071 356.496, 242.118 353 L 243.317 349 250 349 L 256.683 349 257.882 353 C 258.929 356.496, 259.453 357, 262.040 357 C 263.668 357, 265 356.591, 265 356.092 C 265 355.593, 262.470 347.943, 259.379 339.092 L 253.758 323 250.438 323 C 248.612 323, 246.874 323.395, 246.575 323.879 M 270.667 323.667 C 270.300 324.033, 270 331.683, 270 340.667 L 270 357 272.969 357 L 275.938 357 276.219 344.987 L 276.500 332.975 283.995 344.987 C 291.098 356.371, 291.663 357, 294.770 357 L 298.048 357 297.774 340.250 L 297.500 323.500 294.782 323.187 L 292.065 322.873 291.782 334.665 L 291.500 346.457 284.182 334.729 C 277.706 324.349, 276.546 323, 274.099 323 C 272.578 323, 271.033 323.300, 270.667 323.667 M 314 325.500 C 314 327.833, 314.333 328, 319 328 L 324 328 324 342.500 L 324 357 327 357 L 330 357 330 342.500 L 330 328 335 328 C 339.667 328, 340 327.833, 340 325.500 L 340 323 327 323 L 314 323 314 325.500 M 345 340 L 345 357 356.570 357 C 367.996 357, 368.135 356.972, 367.820 354.750 C 367.522 352.652, 366.942 352.480, 359.250 352.210 L 351 351.919 351 346.960 L 351 342 358 342 C 364.800 342, 365 341.929, 365 339.500 C 365 337.071, 364.800 337, 358 337 L 351 337 351 332.500 L 351 328 359 328 C 366.867 328, 367 327.958, 367 325.500 L 367 323 356 323 L 345 323 345 340 M 373.667 323.667 C 373.300 324.033, 373 331.683, 373 340.667 L 373 357 376 357 L 379 357 379 350 L 379 343 382.878 343 C 387.493 343, 388.184 343.748, 390.499 351.250 C 392.119 356.498, 392.524 357, 395.137 357 C 396.712 357, 398 356.620, 398 356.157 C 398 354.565, 394.011 343.718, 392.959 342.451 C 392.187 341.521, 392.585 340.506, 394.454 338.637 C 399.382 333.709, 397.136 325.965, 390.221 324.044 C 386.070 322.892, 374.701 322.632, 373.667 323.667 M 405 339.878 L 405 357 414.889 357 C 422.831 357, 425.197 356.655, 426.903 355.250 C 431.423 351.527, 431.217 341.967, 426.572 339.851 C 424.266 338.800, 424.257 338.743, 426.110 336.890 C 428.876 334.124, 428.573 328.887, 425.480 325.981 C 423.311 323.943, 421.712 323.554, 413.980 323.185 L 405 322.755 405 339.878 M 444.497 324.189 C 444.229 324.910, 441.532 332.616, 438.502 341.314 L 432.994 357.127 436.164 356.814 C 438.785 356.554, 439.537 355.894, 440.503 353 C 441.665 349.518, 441.705 349.498, 448.282 349.206 L 454.893 348.911 456.105 352.956 C 457.202 356.616, 457.629 357, 460.605 357 L 463.894 357 458.066 340.250 L 452.238 323.500 448.611 323.189 C 446.295 322.991, 444.808 323.352, 444.497 324.189 M 469 339.934 L 469 357 472.024 357 L 475.048 357 474.774 340.250 L 474.500 323.500 471.750 323.184 L 469 322.867 469 339.934 M 483.667 323.667 C 483.300 324.033, 483 331.683, 483 340.667 L 483 357 486 357 L 489 357 489.034 349.750 L 489.069 342.500 495.785 349.832 C 501.947 356.559, 502.786 357.137, 505.951 356.832 L 509.401 356.500 502.078 348.214 C 495.478 340.747, 494.897 339.759, 496.197 338.214 C 496.990 337.271, 499.970 333.765, 502.819 330.422 C 505.669 327.080, 508 324.042, 508 323.672 C 508 323.303, 506.762 322.989, 505.250 322.975 C 503.102 322.955, 501.029 324.542, 495.784 330.225 L 489.069 337.500 489.034 330.250 C 489.002 323.331, 488.893 323, 486.667 323 C 485.383 323, 484.033 323.300, 483.667 323.667 M 539 339.861 L 539 357 547.852 357 C 555.391 357, 557.209 356.663, 560.102 354.730 C 566.616 350.378, 568.871 340.718, 565.399 332.039 C 562.978 325.988, 558.730 323.848, 547.922 323.231 L 539 322.723 539 339.861 M 574 340 L 574 357 585.570 357 C 596.996 357, 597.135 356.972, 596.820 354.750 C 596.522 352.652, 595.942 352.480, 588.250 352.210 L 580 351.919 580 346.960 L 580 342 587 342 C 593.800 342, 594 341.929, 594 339.500 C 594 337.071, 593.800 337, 587 337 L 580 337 580 332.500 L 580 328 588 328 C 595.867 328, 596 327.958, 596 325.500 L 596 323 585 323 L 574 323 574 340 M 602.667 323.667 C 602.300 324.033, 602 331.683, 602 340.667 L 602 357 605 357 L 608 357 608.034 349.750 L 608.069 342.500 614.785 349.832 C 620.947 356.559, 621.786 357.137, 624.951 356.832 L 628.401 356.500 621.078 348.214 C 614.478 340.747, 613.897 339.759, 615.197 338.214 C 615.990 337.271, 618.970 333.765, 621.819 330.422 C 624.669 327.080, 627 324.042, 627 323.672 C 627 323.303, 625.763 322.989, 624.250 322.975 C 622.102 322.955, 620.029 324.542, 614.784 330.225 L 608.069 337.500 608.034 330.250 C 608.002 323.331, 607.893 323, 605.667 323 C 604.383 323, 603.033 323.300, 602.667 323.667 M 634.636 339.322 C 631.536 348.299, 629 355.949, 629 356.322 C 629 356.695, 630.332 357, 631.960 357 C 634.547 357, 635.071 356.496, 636.118 353 L 637.317 349 644 349 L 650.683 349 651.882 353 C 652.938 356.524, 653.441 357, 656.113 357 C 658.075 357, 659.032 356.549, 658.823 355.724 C 658.645 355.023, 656.038 347.373, 653.028 338.724 L 647.556 323 643.914 323 L 640.272 323 634.636 339.322 M 658 325.470 C 658 327.839, 658.318 328, 663 328 L 668 328 668 342.500 L 668 357 671 357 L 674 357 674 342.500 L 674 328 679.070 328 C 683.755 328, 684.115 327.829, 683.820 325.750 C 683.510 323.568, 683.113 323.492, 670.750 323.220 L 658 322.940 658 325.470 M 709 339.861 L 709 357 717.852 357 C 725.391 357, 727.209 356.663, 730.102 354.730 C 736.616 350.378, 738.871 340.718, 735.399 332.039 C 732.978 325.988, 728.730 323.848, 717.922 323.231 L 709 322.723 709 339.861 M 745.636 339.322 C 742.536 348.299, 740 355.949, 740 356.322 C 740 356.695, 741.332 357, 742.960 357 C 745.547 357, 746.071 356.496, 747.118 353 L 748.317 349 755 349 L 761.683 349 762.882 353 C 763.938 356.524, 764.441 357, 767.113 357 C 769.075 357, 770.032 356.549, 769.823 355.724 C 769.645 355.023, 767.038 347.373, 764.028 338.724 L 758.556 323 754.914 323 L 751.272 323 745.636 339.322 M 775 340 L 775 357 778 357 L 781 357 781 344.769 L 781 332.538 788.600 344.769 C 795.486 355.852, 796.471 357, 799.100 357 L 802 357 802 340 L 802 323 799.531 323 L 797.062 323 796.781 334.974 L 796.500 346.948 789.105 334.974 C 782.034 323.524, 781.563 323, 778.355 323 L 775 323 775 340 M 819 325.470 C 819 327.839, 819.318 328, 824 328 L 829 328 829 342.500 L 829 357 832 357 L 835 357 835 342.500 L 835 328 840.070 328 C 844.755 328, 845.115 327.829, 844.820 325.750 C 844.510 323.568, 844.113 323.492, 831.750 323.220 L 819 322.940 819 325.470 M 850 340 L 850 357 861 357 L 872 357 872 354.500 C 872 352.042, 871.867 352, 864 352 L 856 352 856 347 L 856 342 863 342 C 869.800 342, 870 341.929, 870 339.500 C 870 337.071, 869.800 337, 863 337 L 856 337 856 332.500 L 856 328 864 328 C 871.867 328, 872 327.958, 872 325.500 L 872 323 861 323 L 850 323 850 340 M 878 340 L 878 357 881 357 L 884 357 884 350 L 884 343 886.918 343 C 891.818 343, 892.814 343.932, 895.029 350.587 C 897.018 356.563, 897.367 357, 900.149 357 C 903.551 357, 903.546 356.929, 899.436 346.565 C 897.130 340.750, 897.122 340.603, 899.002 339.286 C 901.753 337.359, 902.529 331.923, 900.587 328.168 C 898.651 324.424, 894.324 323.013, 884.750 323.006 L 878 323 878 340 M 909 335.983 C 909 345.933, 909.378 349.831, 910.566 352.128 C 914.436 359.611, 928.801 359.811, 933.624 352.450 C 935.095 350.206, 935.413 347.454, 935.452 336.617 L 935.500 323.500 932.750 323.184 L 930 322.867 930 333.190 C 930 343.907, 928.943 349.784, 926.768 351.164 C 924.513 352.596, 918.317 352.087, 916.872 350.352 C 915.938 349.229, 915.340 344.680, 915 336.102 L 914.500 323.500 911.750 323.184 L 909 322.867 909 335.983 M 944 339.878 L 944 357 947 357 L 950 357 950 351 L 950 345 953.750 344.994 C 963.206 344.980, 968 341.314, 968 334.097 C 968 326.295, 964.473 323.773, 952.750 323.190 L 944 322.755 944 339.878 M 974.750 323.555 C 974.337 323.983, 974 331.683, 974 340.667 L 974 357 983.250 356.996 C 990.770 356.993, 993.120 356.614, 995.818 354.970 C 1005.477 349.081, 1005.041 330.095, 995.139 325.396 C 991.460 323.650, 976.004 322.255, 974.750 323.555 M 1011.636 339.322 C 1008.536 348.299, 1006 355.949, 1006 356.322 C 1006 356.695, 1007.332 357, 1008.960 357 C 1011.547 357, 1012.071 356.496, 1013.118 353 L 1014.317 349 1021 349 L 1027.683 349 1028.882 353 C 1029.938 356.524, 1030.441 357, 1033.113 357 C 1035.075 357, 1036.032 356.549, 1035.823 355.724 C 1035.645 355.023, 1033.038 347.373, 1030.028 338.724 L 1024.556 323 1020.914 323 L 1017.272 323 1011.636 339.322 M 1034.695 323.638 C 1034.313 324.021, 1034 325.158, 1034 326.167 C 1034 327.700, 1034.818 328, 1039 328 L 1044 328 1044 342.500 L 1044 357 1047 357 L 1050 357 1050 342.500 L 1050 328 1055.570 328 C 1060.773 328, 1061.118 327.852, 1060.820 325.750 C 1060.510 323.570, 1060.107 323.491, 1047.945 323.222 C 1041.040 323.068, 1035.077 323.256, 1034.695 323.638 M 1066 339.966 L 1066 357 1077 357 L 1088 357 1088 354.500 C 1088 352.042, 1087.867 352, 1080 352 L 1072 352 1072 347 L 1072 342 1079 342 C 1085.800 342, 1086 341.929, 1086 339.500 C 1086 337.071, 1085.800 337, 1079 337 L 1072 337 1072 332.500 L 1072 328 1080.070 328 C 1087.866 328, 1088.128 327.924, 1087.820 325.750 C 1087.514 323.597, 1087.038 323.488, 1076.750 323.216 L 1066 322.932 1066 339.966 M 104.923 330.923 C 102.281 333.565, 102 334.482, 102 340.469 C 102 348.735, 104.504 352, 110.844 352 C 117.319 352, 119.347 349.550, 119.821 341.154 C 120.205 334.358, 120.097 333.944, 117.188 331.034 C 113.143 326.989, 108.895 326.951, 104.923 330.923 M 183.206 329.048 C 179.843 330.397, 177.653 336.426, 178.360 342.390 C 179.145 349.016, 181.982 352, 187.500 352 C 193.018 352, 195.855 349.016, 196.640 342.390 C 197.887 331.863, 191.643 325.662, 183.206 329.048 M 379 332.873 L 379 338 383.800 338 C 389 338, 391.009 336.756, 390.985 333.550 C 390.958 329.979, 389.356 328.741, 384.107 328.236 L 379 327.746 379 332.873 M 411 332.500 L 411 337 415.300 337 C 420.044 337, 422 335.686, 422 332.500 C 422 329.314, 420.044 328, 415.300 328 L 411 328 411 332.500 M 545 339.995 L 545 352.248 550.559 351.787 C 558.516 351.127, 560.456 348.923, 560.481 340.516 C 560.505 332.242, 558.141 329.448, 550.250 328.424 L 545 327.742 545 339.995 M 715 339.995 L 715 352.248 720.559 351.787 C 728.516 351.127, 730.456 348.923, 730.481 340.516 C 730.505 332.242, 728.141 329.448, 720.250 328.424 L 715 327.742 715 339.995 M 884 333 L 884 338 888.429 338 C 893.195 338, 896 336.142, 896 332.985 C 896 330.314, 892.184 328, 887.777 328 L 884 328 884 333 M 950 334 L 950 340.260 954.499 339.753 C 960.008 339.132, 962 337.604, 962 334 C 962 330.396, 960.008 328.868, 954.499 328.247 L 950 327.740 950 334 M 980 339.862 L 980 352 984.550 352 C 989.740 352, 994.634 349.850, 995.336 347.261 C 996.696 342.251, 996.831 340.162, 996.025 336.599 C 994.766 331.032, 992.445 329.180, 985.750 328.397 L 980 327.725 980 339.862 M 446.165 335.976 C 444.974 339.503, 444 342.751, 444 343.194 C 444 343.637, 446.055 344, 448.567 344 C 453.686 344, 453.546 344.910, 450.019 334.532 L 448.331 329.564 446.165 335.976 M 247.294 337.500 L 245.181 344 250 344 L 254.819 344 252.706 337.500 C 251.543 333.925, 250.326 331, 250 331 C 249.674 331, 248.457 333.925, 247.294 337.500 M 641.294 337.500 L 639.181 344 644 344 L 648.819 344 646.706 337.500 C 645.543 333.925, 644.326 331, 644 331 C 643.674 331, 642.457 333.925, 641.294 337.500 M 752.294 337.500 L 750.181 344 755 344 L 759.819 344 757.706 337.500 C 756.543 333.925, 755.326 331, 755 331 C 754.674 331, 753.457 333.925, 752.294 337.500 M 1018.294 337.500 L 1016.181 344 1021 344 L 1025.819 344 1023.706 337.500 C 1022.543 333.925, 1021.326 331, 1021 331 C 1020.674 331, 1019.457 333.925, 1018.294 337.500 M 411 347 L 411 352 416.300 352 C 422.210 352, 424 350.838, 424 347 C 424 343.162, 422.210 342, 416.300 342 L 411 342 411 347 M 514.724 351.134 C 512.551 352.350, 512.488 355.614, 514.614 356.804 C 515.890 357.518, 516.001 358.130, 515.141 359.736 C 514.544 360.852, 513.376 362.026, 512.545 362.344 C 510.779 363.022, 511.572 366, 513.518 366 C 514.235 366, 515.987 364.615, 517.411 362.923 C 522.128 357.317, 520.041 348.159, 514.724 351.134 M 684.724 351.134 C 682.551 352.350, 682.488 355.614, 684.614 356.804 C 685.890 357.518, 686.001 358.130, 685.141 359.736 C 684.544 360.852, 683.376 362.026, 682.545 362.344 C 680.779 363.022, 681.572 366, 683.518 366 C 684.235 366, 685.987 364.615, 687.411 362.923 C 692.128 357.317, 690.041 348.159, 684.724 351.134" stroke="none" fill="#040404" fill-rule="evenodd"/></svg>