<svg xmlns="http://www.w3.org/2000/svg" viewBox="150 392.37 700 215.26"><defs/><path fill="#f5000b" transform="matrix(0.5412555158618478 0 0 0.5412555158618478 -175.26437037146766 81.24364814086674)" d="M 1364.93889393716 668.52168341821 L 1375.43889393716 668.52168341821 L 1375.43889393716 679.02168341821 L 1364.93889393716 679.02168341821 Z"/><path fill="#f5000b" transform="matrix(0.5412555158618478 0 0 0.5412555158618478 -175.26437037146766 81.24364814086674)" d="M 1382.43889393716 668.52168341821 L 1392.93889393716 668.52168341821 L 1392.93889393716 679.02168341821 L 1382.43889393716 679.02168341821 Z"/><path fill="#f5000b" transform="matrix(0.5412555158618478 0 0 0.5412555158618478 -175.26437037146766 81.24364814086674)" d="M 1364.93889393716 685.92168341821 L 1375.43889393716 685.92168341821 L 1375.43889393716 696.42168341821 L 1364.93889393716 696.42168341821 Z"/><path fill="#f5000b" transform="matrix(0.5412555158618478 0 0 0.5412555158618478 -175.26437037146766 81.24364814086674)" d="M 1382.43889393716 685.92168341821 L 1392.93889393716 685.92168341821 L 1392.93889393716 696.42168341821 L 1382.43889393716 696.42168341821 Z"/><path fill="#f5000b" transform="matrix(-0.5412555158618478 -0.000000000024245757335237817 0.000000000024245757335237817 -0.5412555158618478 -40.717017467569235 380.06951943495494)" d="M -877.93889395497 -126.92168337355 L -867.43889395497 -126.92168337355 L -867.43889395497 -116.42168337355 L -877.93889395497 -116.42168337355 Z"/><path fill="#f5000b" transform="matrix(-0.5412555158618478 -0.000000000024433004680950227 0.000000000024433004680950227 -0.5412555158618478 -59.6990649110506 380.06951943495494)" d="M -895.43889395511 -126.9216833732 L -884.93889395511 -126.9216833732 L -884.93889395511 -116.4216833732 L -895.43889395511 -116.4216833732 Z"/><path fill="#f5000b" transform="matrix(-0.5412555158618478 -0.000000000024433004680950227 0.000000000024433004680950227 -0.5412555158618478 -40.717017467569235 398.9560352798866)" d="M -877.93889395511 -109.5216833732 L -867.43889395511 -109.5216833732 L -867.43889395511 -99.0216833732 L -877.93889395511 -99.0216833732 Z"/><path fill="#f5000b" transform="matrix(-0.5412555158618478 -0.000000000024433004680950227 0.000000000024433004680950227 -0.5412555158618478 -59.6990649110506 398.9560352798866)" d="M -895.43889395511 -109.5216833732 L -884.93889395511 -109.5216833732 L -884.93889395511 -99.0216833732 L -895.43889395511 -99.0216833732 Z"/><path fill="#fd0d0b" transform="matrix(0.5412555158618478 0 0 0.5412555158618478 -175.26437037146766 81.24364814086674)" d="M 1385.03889393716 575.72168341821 L 1247.23889393716 627.72168341821 L 1109.83889393716 574.82168341821 L 1226.33889393716 720.72168341821 L 1268.03889393716 720.72168341821 Z"/><path fill="#f5000b" transform="matrix(0.5412555158618478 0 0 0.5412555158618478 -175.26437037146766 81.24364814086674)" d="M 1458.63889393716 702.92168341821 L 1385.03889393716 575.72168341821 L 1375.33889393716 587.32168341821 L 1454.93889393716 720.72168341821 L 1471.03889393716 720.72168341821 L 1471.03889393716 720.72168341821 L 1491.53889393716 720.72168341821 Z"/><path fill="#f5000b" transform="matrix(0.5412555158618478 0 0 0.5412555158618478 -175.26437037146766 81.24364814086674)" d="M 1033.53889393716 705.92168341821 L 1110.23889393716 575.72168341821 L 1119.83889393716 587.32168341821 L 1040.33889393716 720.72168341821 L 1024.13889393716 720.72168341821 L 1024.13889393716 720.72168341821 L 1003.63889393716 720.72168341821 Z"/><g opacity="0.3" transform="matrix(0.5412555158618478 0 0 0.5412555158618478 -175.26437037146766 81.24364814086674)"><path fill="#f5000b" d="M 1385.13889393716 627.92168341821 C 1382.53889393716 623.42168341821 1379.93889393716 618.92168341821 1377.13889393716 614.52168341821 L 1374.63889393716 610.62168341821 L 1371.43889393716 614.42168341821 C 1364.23889393716 622.82168341821 1357.23889393716 631.32168341821 1350.33889393716 639.92168341821 C 1343.43889393716 648.52168341821 1336.73889393716 657.32168341821 1330.13889393716 666.12168341821 L 1320.33889393716 679.42168341821 C 1317.13889393716 683.92168341821 1313.93889393716 688.42168341821 1310.83889393716 692.92168341821 C 1304.53889393716 702.02168341821 1298.43889393716 711.22168341821 1292.73889393716 720.72168341821 C 1300.63889393716 712.92168341821 1308.13889393716 704.72168341821 1315.43889393716 696.52168341821 C 1319.13889393716 692.42168341821 1322.63889393716 688.22168341821 1326.23889393716 684.02168341821 L 1336.83889393716 671.32168341821 C 1343.73889393716 662.72168341821 1350.63889393716 654.22168341821 1357.43889393716 645.42168341821 C 1363.23889393716 637.82168341821 1368.93889393716 630.22168341821 1374.53889393716 622.42168341821 C 1376.83889393716 625.22168341821 1379.13889393716 627.92168341821 1381.53889393716 630.62168341821 C 1385.03889393716 634.52168341821 1388.53889393716 638.32168341821 1392.43889393716 642.02168341821 C 1390.23889393716 637.12168341821 1387.63889393716 632.52168341821 1385.13889393716 627.92168341821 Z"/></g><g opacity="0.3" transform="matrix(0.5412555158618478 0 0 0.5412555158618478 -175.26437037146766 81.24364814086674)"><path fill="#f5000b" d="M 1175.03889393716 679.32168341821 L 1165.23889393716 666.02168341821 C 1158.53889393716 657.22168341821 1151.93889393716 648.42168341821 1145.03889393716 639.92168341821 C 1138.23889393716 631.32168341821 1131.13889393716 622.82168341821 1124.03889393716 614.42168341821 L 1120.63889393716 610.52168341821 L 1118.23889393716 614.72168341821 C 1115.13889393716 620.12168341821 1112.03889393716 625.62168341821 1109.13889393716 631.22168341821 L 1104.83889393716 639.62168341821 C 1103.43889393716 642.42168341821 1102.13889393716 645.32168341821 1100.83889393716 648.22168341821 C 1102.93889393716 645.82168341821 1105.03889393716 643.42168341821 1107.03889393716 641.02168341821 L 1112.93889393716 633.62168341821 C 1115.73889393716 630.02168341821 1118.53889393716 626.32168341821 1121.23889393716 622.62168341821 C 1126.73889393716 630.32168341821 1132.43889393716 637.82168341821 1138.13889393716 645.32168341821 C 1144.83889393716 654.12168341821 1151.73889393716 662.62168341821 1158.63889393716 671.22168341821 L 1169.23889393716 683.92168341821 C 1172.83889393716 688.12168341821 1176.43889393716 692.32168341821 1180.03889393716 696.42168341821 C 1187.33889393716 704.72168341821 1194.83889393716 712.82168341821 1202.73889393716 720.62168341821 C 1197.03889393716 711.12168341821 1190.93889393716 701.92168341821 1184.63889393716 692.82168341821 C 1181.43889393716 688.32168341821 1178.13889393716 683.82168341821 1175.03889393716 679.32168341821 Z"/></g><path id="text" fill="#fe1620" transform="matrix(0.5730189914865749 0 0 0.5730189914865749 -180.04343074656197 331.44803740995417)" d="M 986.94481071429 309.39400357143 L 1007.24168571429 309.39400357143 L 1032.46043571429 342.67525357143 L 1032.46043571429 309.39400357143 L 1048.49168571429 309.39400357143 L 1048.49168571429 375.67525357143 L 1027.67918571429 375.67525357143 L 1002.83543571429 340.42525357143 L 1002.83543571429 375.67525357143 L 986.94481071429 375.67525357143 L 986.94481071429 309.39400357143 Z M 1097.14793571429 377.03462857143 C 1093.71043571429 377.03462857143 1090.42918571429 376.65181607143 1087.30418571429 375.88619107143 C 1084.17918571429 375.12056607143 1081.27293571429 374.01900357143 1078.58543571429 372.58150357143 C 1075.89793571429 371.14400357143 1073.46824821429 369.39400357143 1071.29637321429 367.33150357143 C 1069.12449821429 365.26900357143 1067.26512321429 362.94087857143 1065.71824821429 360.34712857143 C 1064.17137321429 357.75337857143 1062.97606071429 354.92525357143 1062.13231071429 351.86275357143 C 1061.28856071429 348.80025357143 1060.86668571429 345.53462857143 1060.86668571429 342.06587857143 C 1060.86668571429 337.00337857143 1061.87449821429 332.38619107143 1063.89012321429 328.21431607143 C 1065.90574821429 324.04244107143 1068.71824821429 320.46431607143 1072.32762321429 317.47994107143 C 1075.93699821429 314.49556607143 1080.23387321429 312.19087857143 1085.21824821429 310.56587857143 C 1090.20262321429 308.94087857143 1095.67918571429 308.12837857143 1101.64793571429 308.12837857143 C 1104.86668571429 308.12837857143 1108.27293571429 308.37056607143 1111.86668571429 308.85494107143 C 1115.46043571429 309.33931607143 1119.05418571429 310.11275357143 1122.64793571429 311.17525357143 L 1119.64793571429 326.17525357143 C 1116.42918571429 325.01900357143 1113.49168571429 324.21431607143 1110.83543571429 323.76119107143 C 1108.17918571429 323.30806607143 1105.61668571429 323.08150357143 1103.14793571429 323.08150357143 C 1099.86668571429 323.08150357143 1096.91356071429 323.54244107143 1094.28856071429 324.46431607143 C 1091.66356071429 325.38619107143 1089.42918571429 326.67525357143 1087.58543571429 328.33150357143 C 1085.74168571429 329.98775357143 1084.32762321429 331.99556607143 1083.34324821429 334.35494107143 C 1082.35887321429 336.71431607143 1081.86668571429 339.31587857143 1081.86668571429 342.15962857143 C 1081.86668571429 345.31587857143 1082.19481071429 348.12837857143 1082.85106071429 350.59712857143 C 1083.50731071429 353.06587857143 1084.52293571429 355.15962857143 1085.89793571429 356.87837857143 C 1087.27293571429 358.59712857143 1089.01512321429 359.90962857143 1091.12449821429 360.81587857143 C 1093.23387321429 361.72212857143 1095.74168571429 362.17525357143 1098.64793571429 362.17525357143 L 1104.64793571429 362.17525357143 L 1104.64793571429 348.44087857143 L 1094.14793571429 349.84712857143 L 1094.14793571429 338.17525357143 L 1122.64793571429 338.17525357143 L 1122.64793571429 369.86275357143 C 1120.33543571429 371.23775357143 1118.10106071429 372.38619107143 1115.94481071429 373.30806607143 C 1113.78856071429 374.22994107143 1111.66356071429 374.96431607143 1109.56981071429 375.51119107143 C 1107.47606071429 376.05806607143 1105.40574821429 376.44869107143 1103.35887321429 376.68306607143 C 1101.31199821429 376.91744107143 1099.24168571429 377.03462857143 1097.14793571429 377.03462857143 Z M 1137.08543571429 309.39400357143 L 1183.58543571429 309.39400357143 L 1183.58543571429 321.67525357143 L 1158.08543571429 321.67525357143 L 1158.08543571429 335.69087857143 L 1180.58543571429 335.69087857143 L 1180.58543571429 347.69087857143 L 1158.08543571429 347.69087857143 L 1158.08543571429 362.17525357143 L 1183.58543571429 362.17525357143 L 1183.58543571429 375.67525357143 L 1137.08543571429 375.67525357143 L 1137.08543571429 309.39400357143 Z M 1219.86668571429 347.64400357143 L 1219.86668571429 375.67525357143 L 1198.86668571429 375.67525357143 L 1198.86668571429 309.39400357143 L 1219.86668571429 309.39400357143 L 1219.86668571429 338.59712857143 L 1234.86668571429 309.39400357143 L 1259.38231071429 309.39400357143 L 1240.39793571429 341.17525357143 L 1259.38231071429 375.67525357143 L 1234.86668571429 375.67525357143 L 1221.36668571429 344.45650357143 L 1219.86668571429 347.64400357143 Z M 1290.22606071429 377.03462857143 C 1286.13231071429 377.03462857143 1282.47606071429 376.58931607143 1279.25731071429 375.69869107143 C 1276.03856071429 374.80806607143 1273.20262321429 373.57369107143 1270.74949821429 371.99556607143 C 1268.29637321429 370.41744107143 1266.21824821429 368.54244107143 1264.51512321429 366.37056607143 C 1262.81199821429 364.19869107143 1261.42137321429 361.83931607143 1260.34324821429 359.29244107143 C 1259.26512321429 356.74556607143 1258.48387321429 354.06587857143 1257.99949821429 351.25337857143 C 1257.51512321429 348.44087857143 1257.27293571429 345.58150357143 1257.27293571429 342.67525357143 C 1257.27293571429 339.80025357143 1257.56981071429 336.94869107143 1258.16356071429 334.12056607143 C 1258.75731071429 331.29244107143 1259.64793571429 328.59712857143 1260.83543571429 326.03462857143 C 1262.02293571429 323.47212857143 1263.52293571429 321.09712857143 1265.33543571429 318.90962857143 C 1267.14793571429 316.72212857143 1269.27293571429 314.83150357143 1271.71043571429 313.23775357143 C 1274.14793571429 311.64400357143 1276.90574821429 310.39400357143 1279.98387321429 309.48775357143 C 1283.06199821429 308.58150357143 1286.47606071429 308.12837857143 1290.22606071429 308.12837857143 C 1293.97606071429 308.12837857143 1297.39012321429 308.58150357143 1300.46824821429 309.48775357143 C 1303.54637321429 310.39400357143 1306.31199821429 311.64400357143 1308.76512321429 313.23775357143 C 1311.21824821429 314.83150357143 1313.35106071429 316.72212857143 1315.16356071429 318.90962857143 C 1316.97606071429 321.09712857143 1318.48387321429 323.47212857143 1319.68699821429 326.03462857143 C 1320.89012321429 328.59712857143 1321.78856071429 331.29244107143 1322.38231071429 334.12056607143 C 1322.97606071429 336.94869107143 1323.27293571429 339.80025357143 1323.27293571429 342.67525357143 C 1323.27293571429 345.58150357143 1323.02293571429 348.44087857143 1322.52293571429 351.25337857143 C 1322.02293571429 354.06587857143 1321.23387321429 356.74556607143 1320.15574821429 359.29244107143 C 1319.07762321429 361.83931607143 1317.67918571429 364.19869107143 1315.96043571429 366.37056607143 C 1314.24168571429 368.54244107143 1312.16356071429 370.41744107143 1309.72606071429 371.99556607143 C 1307.28856071429 373.57369107143 1304.45262321429 374.80806607143 1301.21824821429 375.69869107143 C 1297.98387321429 376.58931607143 1294.31981071429 377.03462857143 1290.22606071429 377.03462857143 Z M 1278.27293571429 342.67525357143 C 1278.27293571429 346.42525357143 1278.54637321429 349.62837857143 1279.09324821429 352.28462857143 C 1279.64012321429 354.94087857143 1280.42137321429 357.11275357143 1281.43699821429 358.80025357143 C 1282.45262321429 360.48775357143 1283.70262321429 361.72212857143 1285.18699821429 362.50337857143 C 1286.67137321429 363.28462857143 1288.35106071429 363.67525357143 1290.22606071429 363.67525357143 C 1292.10106071429 363.67525357143 1293.78074821429 363.28462857143 1295.26512321429 362.50337857143 C 1296.74949821429 361.72212857143 1298.01512321429 360.48775357143 1299.06199821429 358.80025357143 C 1300.10887321429 357.11275357143 1300.90574821429 354.94087857143 1301.45262321429 352.28462857143 C 1301.99949821429 349.62837857143 1302.27293571429 346.42525357143 1302.27293571429 342.67525357143 C 1302.27293571429 338.92525357143 1301.99949821429 335.71431607143 1301.45262321429 333.04244107143 C 1300.90574821429 330.37056607143 1300.10887321429 328.18306607143 1299.06199821429 326.47994107143 C 1298.01512321429 324.77681607143 1296.74949821429 323.51900357143 1295.26512321429 322.70650357143 C 1293.78074821429 321.89400357143 1292.10106071429 321.48775357143 1290.22606071429 321.48775357143 C 1288.35106071429 321.48775357143 1286.67137321429 321.89400357143 1285.18699821429 322.70650357143 C 1283.70262321429 323.51900357143 1282.45262321429 324.77681607143 1281.43699821429 326.47994107143 C 1280.42137321429 328.18306607143 1279.64012321429 330.37056607143 1279.09324821429 333.04244107143 C 1278.54637321429 335.71431607143 1278.27293571429 338.92525357143 1278.27293571429 342.67525357143 Z M 1382.89793571429 326.59712857143 C 1381.61668571429 326.03462857143 1380.12449821429 325.46431607143 1378.42137321429 324.88619107143 C 1376.71824821429 324.30806607143 1374.93699821429 323.78462857143 1373.07762321429 323.31587857143 C 1371.21824821429 322.84712857143 1369.33543571429 322.46431607143 1367.42918571429 322.16744107143 C 1365.52293571429 321.87056607143 1363.72606071429 321.72212857143 1362.03856071429 321.72212857143 C 1359.10106071429 321.72212857143 1356.80418571429 322.09712857143 1355.14793571429 322.84712857143 C 1353.49168571429 323.59712857143 1352.66356071429 324.86275357143 1352.66356071429 326.64400357143 C 1352.66356071429 327.48775357143 1352.95262321429 328.22994107143 1353.53074821429 328.87056607143 C 1354.10887321429 329.51119107143 1354.92918571429 330.10494107143 1355.99168571429 330.65181607143 C 1357.05418571429 331.19869107143 1358.32762321429 331.72994107143 1359.81199821429 332.24556607143 C 1361.29637321429 332.76119107143 1362.94481071429 333.30025357143 1364.75731071429 333.86275357143 L 1368.17918571429 334.94087857143 C 1371.05418571429 335.81587857143 1373.63231071429 336.87056607143 1375.91356071429 338.10494107143 C 1378.19481071429 339.33931607143 1380.12449821429 340.79244107143 1381.70262321429 342.46431607143 C 1383.28074821429 344.13619107143 1384.49168571429 346.05025357143 1385.33543571429 348.20650357143 C 1386.17918571429 350.36275357143 1386.60106071429 352.81587857143 1386.60106071429 355.56587857143 C 1386.60106071429 358.78462857143 1386.09324821429 361.71431607143 1385.07762321429 364.35494107143 C 1384.06199821429 366.99556607143 1382.47606071429 369.25337857143 1380.31981071429 371.12837857143 C 1378.16356071429 373.00337857143 1375.40574821429 374.45650357143 1372.04637321429 375.48775357143 C 1368.68699821429 376.51900357143 1364.64793571429 377.03462857143 1359.92918571429 377.03462857143 C 1355.74168571429 377.03462857143 1351.57762321429 376.69087857143 1347.43699821429 376.00337857143 C 1343.29637321429 375.31587857143 1339.11668571429 374.11275357143 1334.89793571429 372.39400357143 L 1334.89793571429 356.92525357143 C 1338.92918571429 358.98775357143 1342.84324821429 360.49556607143 1346.64012321429 361.44869107143 C 1350.43699821429 362.40181607143 1354.17918571429 362.87837857143 1357.86668571429 362.87837857143 C 1360.89793571429 362.87837857143 1363.10887321429 362.39400357143 1364.49949821429 361.42525357143 C 1365.89012321429 360.45650357143 1366.58543571429 359.11275357143 1366.58543571429 357.39400357143 C 1366.58543571429 356.36275357143 1366.32762321429 355.47994107143 1365.81199821429 354.74556607143 C 1365.29637321429 354.01119107143 1364.46824821429 353.33150357143 1363.32762321429 352.70650357143 C 1362.18699821429 352.08150357143 1360.69481071429 351.44869107143 1358.85106071429 350.80806607143 C 1357.00731071429 350.16744107143 1354.77293571429 349.44087857143 1352.14793571429 348.62837857143 C 1349.52293571429 347.84712857143 1347.09324821429 346.86275357143 1344.85887321429 345.67525357143 C 1342.62449821429 344.48775357143 1340.69481071429 343.05806607143 1339.06981071429 341.38619107143 C 1337.44481071429 339.71431607143 1336.17137321429 337.76900357143 1335.24949821429 335.55025357143 C 1334.32762321429 333.33150357143 1333.86668571429 330.80025357143 1333.86668571429 327.95650357143 C 1333.86668571429 325.01900357143 1334.38231071429 322.33150357143 1335.41356071429 319.89400357143 C 1336.44481071429 317.45650357143 1338.02293571429 315.37056607143 1340.14793571429 313.63619107143 C 1342.27293571429 311.90181607143 1344.96824821429 310.55025357143 1348.23387321429 309.58150357143 C 1351.49949821429 308.61275357143 1355.38231071429 308.12837857143 1359.88231071429 308.12837857143 C 1361.66356071429 308.12837857143 1363.55418571429 308.20650357143 1365.55418571429 308.36275357143 C 1367.55418571429 308.51900357143 1369.59324821429 308.75337857143 1371.67137321429 309.06587857143 C 1373.74949821429 309.37837857143 1375.80418571429 309.78462857143 1377.83543571429 310.28462857143 C 1379.86668571429 310.78462857143 1381.78856071429 311.37837857143 1383.60106071429 312.06587857143 L 1382.89793571429 326.59712857143 Z"/><path id="text" transform="matrix(0.28650949574328743 0 0 0.28650949574328743 -178.17266699410618 388.4286877865095)" d="M 1145.41637142857 684.15050714286 L 1160.20037142857 684.15050714286 L 1160.20037142857 751.35050714286 L 1145.41637142857 751.35050714286 L 1145.41637142857 684.15050714286 Z M 1239.88037142857 745.20650714286 C 1240.00837142857 746.99850714286 1240.07237142857 748.18250714286 1240.07237142857 748.75850714286 C 1240.07237142857 750.48650714286 1239.24037142857 751.35050714286 1237.57637142857 751.35050714286 L 1225.09637142857 751.35050714286 L 1225.09637142857 748.08650714286 C 1225.09637142857 744.88650714286 1223.84837142857 741.33450714286 1221.35237142857 737.43050714286 L 1200.13637142857 704.79050714286 L 1200.13637142857 751.35050714286 L 1185.54437142857 751.35050714286 L 1185.54437142857 684.15050714286 L 1198.79237142857 684.15050714286 C 1199.62437142857 684.15050714286 1200.31237142857 684.26250714286 1200.85637142857 684.48650714286 C 1201.40037142857 684.71050714286 1201.92837142857 685.23850714286 1202.44037142857 686.07050714286 L 1225.09637142857 720.53450714286 L 1225.09637142857 684.15050714286 L 1239.68837142857 684.15050714286 L 1239.68837142857 738.19850714286 C 1239.68837142857 740.18250714286 1239.75237142857 742.51850714286 1239.88037142857 745.20650714286 Z M 1277.12837142857 694.32650714286 L 1277.12837142857 712.08650714286 L 1299.68837142857 712.08650714286 L 1299.68837142857 722.26250714286 L 1277.12837142857 722.26250714286 L 1277.12837142857 751.35050714286 L 1262.34437142857 751.35050714286 L 1262.34437142857 684.15050714286 L 1303.81637142857 684.15050714286 L 1303.81637142857 694.32650714286 L 1277.12837142857 694.32650714286 Z M 1327.76837142857 743.14250714286 C 1322.68037142857 737.03050714286 1320.13637142857 728.43850714286 1320.13637142857 717.36650714286 C 1320.13637142857 706.55050714286 1322.68037142857 698.15050714286 1327.76837142857 692.16650714286 C 1332.85637142857 686.18250714286 1339.97637142857 683.19050714286 1349.12837142857 683.19050714286 C 1358.28037142857 683.19050714286 1365.40037142857 686.18250714286 1370.48837142857 692.16650714286 C 1375.57637142857 698.15050714286 1378.12037142857 706.55050714286 1378.12037142857 717.36650714286 C 1378.12037142857 728.43850714286 1375.57637142857 737.03050714286 1370.48837142857 743.14250714286 C 1365.40037142857 749.25450714286 1358.28037142857 752.31050714286 1349.12837142857 752.31050714286 C 1339.97637142857 752.31050714286 1332.85637142857 749.25450714286 1327.76837142857 743.14250714286 Z M 1359.64037142857 735.94250714286 C 1361.84837142857 732.07050714286 1362.95237142857 725.87850714286 1362.95237142857 717.36650714286 C 1362.95237142857 709.04650714286 1361.86437142857 703.03050714286 1359.68837142857 699.31850714286 C 1357.51237142857 695.60650714286 1353.99237142857 693.75050714286 1349.12837142857 693.75050714286 C 1344.26437142857 693.75050714286 1340.74437142857 695.60650714286 1338.56837142857 699.31850714286 C 1336.39237142857 703.03050714286 1335.30437142857 709.04650714286 1335.30437142857 717.36650714286 C 1335.30437142857 725.87850714286 1336.40837142857 732.07050714286 1338.61637142857 735.94250714286 C 1340.82437142857 739.81450714286 1344.32837142857 741.75050714286 1349.12837142857 741.75050714286 C 1353.92837142857 741.75050714286 1357.43237142857 739.81450714286 1359.64037142857 735.94250714286 Z M 1488.61637142857 750.87050714286 C 1486.88837142857 751.83050714286 1483.68837142857 752.31050714286 1479.01637142857 752.31050714286 C 1475.43237142857 752.31050714286 1473.03237142857 751.28650714286 1471.81637142857 749.23850714286 L 1459.14437142857 728.50250714286 C 1457.99237142857 726.58250714286 1457.04837142857 725.23850714286 1456.31237142857 724.47050714286 C 1455.57637142857 723.70250714286 1454.76037142857 723.19050714286 1453.86437142857 722.93450714286 C 1452.96837142857 722.67850714286 1451.62437142857 722.55050714286 1449.83237142857 722.55050714286 L 1449.16037142857 722.55050714286 L 1449.16037142857 751.35050714286 L 1434.37637142857 751.35050714286 L 1434.37637142857 684.15050714286 L 1449.16037142857 684.15050714286 L 1449.16037142857 712.75850714286 L 1453.48037142857 712.75850714286 L 1472.20037142857 684.15050714286 L 1487.84837142857 684.15050714286 L 1465.86437142857 716.31050714286 C 1468.48837142857 718.16650714286 1470.85637142857 720.91850714286 1472.96837142857 724.56650714286 L 1488.61637142857 750.87050714286 Z M 1510.93637142857 743.14250714286 C 1505.84837142857 737.03050714286 1503.30437142857 728.43850714286 1503.30437142857 717.36650714286 C 1503.30437142857 706.55050714286 1505.84837142857 698.15050714286 1510.93637142857 692.16650714286 C 1516.02437142857 686.18250714286 1523.14437142857 683.19050714286 1532.29637142857 683.19050714286 C 1541.44837142857 683.19050714286 1548.56837142857 686.18250714286 1553.65637142857 692.16650714286 C 1558.74437142857 698.15050714286 1561.28837142857 706.55050714286 1561.28837142857 717.36650714286 C 1561.28837142857 728.43850714286 1558.74437142857 737.03050714286 1553.65637142857 743.14250714286 C 1548.56837142857 749.25450714286 1541.44837142857 752.31050714286 1532.29637142857 752.31050714286 C 1523.14437142857 752.31050714286 1516.02437142857 749.25450714286 1510.93637142857 743.14250714286 Z M 1542.80837142857 735.94250714286 C 1545.01637142857 732.07050714286 1546.12037142857 725.87850714286 1546.12037142857 717.36650714286 C 1546.12037142857 709.04650714286 1545.03237142857 703.03050714286 1542.85637142857 699.31850714286 C 1540.68037142857 695.60650714286 1537.16037142857 693.75050714286 1532.29637142857 693.75050714286 C 1527.43237142857 693.75050714286 1523.91237142857 695.60650714286 1521.73637142857 699.31850714286 C 1519.56037142857 703.03050714286 1518.47237142857 709.04650714286 1518.47237142857 717.36650714286 C 1518.47237142857 725.87850714286 1519.57637142857 732.07050714286 1521.78437142857 735.94250714286 C 1523.99237142857 739.81450714286 1527.49637142857 741.75050714286 1532.29637142857 741.75050714286 C 1537.09637142857 741.75050714286 1540.60037142857 739.81450714286 1542.80837142857 735.94250714286 Z M 1587.88037142857 748.27850714286 C 1583.40037142857 745.59050714286 1581.16037142857 741.91050714286 1581.16037142857 737.23850714286 C 1581.16037142857 734.99850714286 1582.10437142857 733.23850714286 1583.99237142857 731.95850714286 C 1585.88037142857 730.67850714286 1588.55237142857 730.00650714286 1592.00837142857 729.94250714286 C 1592.39237142857 733.71850714286 1593.84837142857 736.63050714286 1596.37637142857 738.67850714286 C 1598.90437142857 740.72650714286 1602.31237142857 741.75050714286 1606.60037142857 741.75050714286 C 1614.47237142857 741.75050714286 1618.40837142857 738.83850714286 1618.40837142857 733.01450714286 C 1618.40837142857 730.71050714286 1617.33637142857 728.82250714286 1615.19237142857 727.35050714286 C 1613.04837142857 725.87850714286 1609.32037142857 724.37450714286 1604.00837142857 722.83850714286 C 1596.45637142857 720.72650714286 1590.92037142857 718.02250714286 1587.40037142857 714.72650714286 C 1583.88037142857 711.43050714286 1582.12037142857 707.19050714286 1582.12037142857 702.00650714286 C 1582.12037142857 696.18250714286 1584.37637142857 691.59050714286 1588.88837142857 688.23050714286 C 1593.40037142857 684.87050714286 1599.56037142857 683.19050714286 1607.36837142857 683.19050714286 C 1613.64037142857 683.19050714286 1619.01637142857 684.67850714286 1623.49637142857 687.65450714286 C 1627.97637142857 690.63050714286 1631.04837142857 694.77450714286 1632.71237142857 700.08650714286 C 1631.62437142857 701.17450714286 1630.12037142857 702.13450714286 1628.20037142857 702.96650714286 C 1626.28037142857 703.79850714286 1624.58437142857 704.21450714286 1623.11237142857 704.21450714286 C 1621.96037142857 704.21450714286 1621.06437142857 703.97450714286 1620.42437142857 703.49450714286 C 1619.78437142857 703.01450714286 1619.11237142857 702.10250714286 1618.40837142857 700.75850714286 C 1617.12837142857 698.26250714286 1615.65637142857 696.47050714286 1613.99237142857 695.38250714286 C 1612.32837142857 694.29450714286 1610.12037142857 693.75050714286 1607.36837142857 693.75050714286 C 1600.52037142857 693.75050714286 1597.09637142857 696.02250714286 1597.09637142857 700.56650714286 C 1597.09637142857 702.35850714286 1597.44837142857 703.81450714286 1598.15237142857 704.93450714286 C 1598.85637142857 706.05450714286 1600.07237142857 707.07850714286 1601.80037142857 708.00650714286 C 1603.52837142857 708.93450714286 1606.15237142857 709.97450714286 1609.67237142857 711.12650714286 C 1616.07237142857 713.23850714286 1620.96837142857 715.17450714286 1624.36037142857 716.93450714286 C 1627.75237142857 718.69450714286 1630.13637142857 720.59850714286 1631.51237142857 722.64650714286 C 1632.88837142857 724.69450714286 1633.57637142857 727.22250714286 1633.57637142857 730.23050714286 C 1633.57637142857 734.58250714286 1632.44037142857 738.42250714286 1630.16837142857 741.75050714286 C 1627.89637142857 745.07850714286 1624.71237142857 747.67050714286 1620.61637142857 749.52650714286 C 1616.52037142857 751.38250714286 1611.78437142857 752.31050714286 1606.40837142857 752.31050714286 C 1598.53637142857 752.31050714286 1592.36037142857 750.96650714286 1587.88037142857 748.27850714286 Z M 1690.50437142857 734.74250714286 L 1664.39237142857 734.74250714286 C 1663.49637142857 738.96650714286 1662.56837142857 744.50250714286 1661.60837142857 751.35050714286 L 1647.20837142857 751.35050714286 C 1649.64037142857 728.11850714286 1657.25637142857 705.71850714286 1670.05637142857 684.15050714286 L 1684.93637142857 684.15050714286 C 1697.67237142857 705.59050714286 1705.25637142857 727.99050714286 1707.68837142857 751.35050714286 L 1693.28837142857 751.35050714286 C 1692.32837142857 744.50250714286 1691.40037142857 738.96650714286 1690.50437142857 734.74250714286 Z M 1688.20037142857 724.18250714286 C 1685.51237142857 713.62250714286 1681.92837142857 703.92650714286 1677.44837142857 695.09450714286 C 1672.96837142857 703.92650714286 1669.38437142857 713.62250714286 1666.69637142857 724.18250714286 L 1688.20037142857 724.18250714286 Z M 1779.40037142857 745.20650714286 C 1779.52837142857 746.99850714286 1779.59237142857 748.18250714286 1779.59237142857 748.75850714286 C 1779.59237142857 750.48650714286 1778.76037142857 751.35050714286 1777.09637142857 751.35050714286 L 1764.61637142857 751.35050714286 L 1764.61637142857 748.08650714286 C 1764.61637142857 744.88650714286 1763.36837142857 741.33450714286 1760.87237142857 737.43050714286 L 1739.65637142857 704.79050714286 L 1739.65637142857 751.35050714286 L 1725.06437142857 751.35050714286 L 1725.06437142857 684.15050714286 L 1738.31237142857 684.15050714286 C 1739.14437142857 684.15050714286 1739.83237142857 684.26250714286 1740.37637142857 684.48650714286 C 1740.92037142857 684.71050714286 1741.44837142857 685.23850714286 1741.96037142857 686.07050714286 L 1764.61637142857 720.53450714286 L 1764.61637142857 684.15050714286 L 1779.20837142857 684.15050714286 L 1779.20837142857 738.19850714286 C 1779.20837142857 740.18250714286 1779.27237142857 742.51850714286 1779.40037142857 745.20650714286 Z M 1880.10437142857 688.37450714286 C 1880.10437142857 690.55050714286 1879.75237142857 692.15050714286 1879.04837142857 693.17450714286 C 1878.34437142857 694.19850714286 1877.22437142857 694.71050714286 1875.68837142857 694.71050714286 L 1862.82437142857 694.71050714286 L 1862.82437142857 751.35050714286 L 1848.23237142857 751.35050714286 L 1848.23237142857 694.71050714286 L 1831.33637142857 694.71050714286 L 1831.33637142857 684.15050714286 L 1879.72037142857 684.15050714286 C 1879.97637142857 685.68650714286 1880.10437142857 687.09450714286 1880.10437142857 688.37450714286 Z M 1940.20037142857 741.17450714286 C 1940.20037142857 745.07850714286 1939.84837142857 747.75050714286 1939.14437142857 749.19050714286 C 1938.44037142857 750.63050714286 1937.12837142857 751.35050714286 1935.20837142857 751.35050714286 L 1897.09637142857 751.35050714286 L 1897.09637142857 684.15050714286 L 1939.14437142857 684.15050714286 L 1939.14437142857 694.32650714286 L 1911.88037142857 694.32650714286 L 1911.88037142857 711.60650714286 L 1934.53637142857 711.60650714286 L 1934.53637142857 721.78250714286 L 1911.88037142857 721.78250714286 L 1911.88037142857 741.17450714286 L 1940.20037142857 741.17450714286 Z M 2013.16037142857 750.10250714286 C 2012.52037142857 750.67850714286 2011.40037142857 751.15850714286 2009.80037142857 751.54250714286 C 2008.20037142857 751.92650714286 2006.53637142857 752.11850714286 2004.80837142857 752.11850714286 C 2002.63237142857 752.11850714286 2000.96837142857 751.83050714286 1999.81637142857 751.25450714286 C 1998.66437142857 750.67850714286 1997.76837142857 749.68650714286 1997.12837142857 748.27850714286 L 1990.02437142857 732.34250714286 C 1988.93637142857 729.97450714286 1987.78437142857 728.37450714286 1986.56837142857 727.54250714286 C 1985.35237142857 726.71050714286 1983.56037142857 726.29450714286 1981.19237142857 726.29450714286 L 1976.20037142857 726.29450714286 L 1976.20037142857 751.35050714286 L 1961.41637142857 751.35050714286 L 1961.41637142857 684.15050714286 L 1984.26437142857 684.15050714286 C 1992.84037142857 684.15050714286 1999.43237142857 685.97450714286 2004.04037142857 689.62250714286 C 2008.64837142857 693.27050714286 2010.95237142857 698.48650714286 2010.95237142857 705.27050714286 C 2010.95237142857 709.43050714286 2009.94437142857 712.99850714286 2007.92837142857 715.97450714286 C 2005.91237142857 718.95050714286 2002.98437142857 721.20650714286 1999.14437142857 722.74250714286 C 2000.87237142857 724.53450714286 2002.31237142857 726.71050714286 2003.46437142857 729.27050714286 L 2013.16037142857 750.10250714286 Z M 1983.30437142857 715.92650714286 C 1987.78437142857 715.92650714286 1991.01637142857 715.09450714286 1993.00037142857 713.43050714286 C 1994.98437142857 711.76650714286 1995.97637142857 709.04650714286 1995.97637142857 705.27050714286 C 1995.97637142857 701.49450714286 1994.98437142857 698.75850714286 1993.00037142857 697.06250714286 C 1991.01637142857 695.36650714286 1987.78437142857 694.51850714286 1983.30437142857 694.51850714286 L 1976.20037142857 694.51850714286 L 1976.20037142857 715.92650714286 L 1983.30437142857 715.92650714286 Z M 2078.77637142857 722.21450714286 C 2080.92037142857 724.99850714286 2081.99237142857 728.18250714286 2081.99237142857 731.76650714286 C 2081.99237142857 737.97450714286 2079.84837142857 742.79050714286 2075.56037142857 746.21450714286 C 2071.27237142857 749.63850714286 2065.22437142857 751.35050714286 2057.41637142857 751.35050714286 L 2032.45637142857 751.35050714286 L 2032.45637142857 684.15050714286 L 2056.45637142857 684.15050714286 C 2063.36837142857 684.15050714286 2068.84037142857 685.83050714286 2072.87237142857 689.19050714286 C 2076.90437142857 692.55050714286 2078.92037142857 697.07850714286 2078.92037142857 702.77450714286 C 2078.92037142857 706.03850714286 2078.18437142857 708.88650714286 2076.71237142857 711.31850714286 C 2075.24037142857 713.75050714286 2073.19237142857 715.51050714286 2070.56837142857 716.59850714286 C 2073.89637142857 717.55850714286 2076.63237142857 719.43050714286 2078.77637142857 722.21450714286 Z M 2061.20837142857 696.34250714286 C 2059.38437142857 694.99850714286 2056.52037142857 694.32650714286 2052.61637142857 694.32650714286 L 2047.24037142857 694.32650714286 L 2047.24037142857 711.99050714286 L 2052.32837142857 711.99050714286 C 2056.36037142857 711.99050714286 2059.30437142857 711.25450714286 2061.16037142857 709.78250714286 C 2063.01637142857 708.31050714286 2063.94437142857 705.97450714286 2063.94437142857 702.77450714286 C 2063.94437142857 699.83050714286 2063.03237142857 697.68650714286 2061.20837142857 696.34250714286 Z M 2062.16837142857 740.35850714286 C 2063.92837142857 739.81450714286 2065.17637142857 738.87050714286 2065.91237142857 737.52650714286 C 2066.64837142857 736.18250714286 2067.01637142857 734.26250714286 2067.01637142857 731.76650714286 C 2067.01637142857 728.24650714286 2066.07237142857 725.76650714286 2064.18437142857 724.32650714286 C 2062.29637142857 722.88650714286 2059.01637142857 722.16650714286 2054.34437142857 722.16650714286 L 2047.24037142857 722.16650714286 L 2047.24037142857 741.17450714286 L 2054.53637142857 741.17450714286 C 2057.86437142857 741.17450714286 2060.40837142857 740.90250714286 2062.16837142857 740.35850714286 Z M 2139.49637142857 734.74250714286 L 2113.38437142857 734.74250714286 C 2112.48837142857 738.96650714286 2111.56037142857 744.50250714286 2110.60037142857 751.35050714286 L 2096.20037142857 751.35050714286 C 2098.63237142857 728.11850714286 2106.24837142857 705.71850714286 2119.04837142857 684.15050714286 L 2133.92837142857 684.15050714286 C 2146.66437142857 705.59050714286 2154.24837142857 727.99050714286 2156.68037142857 751.35050714286 L 2142.28037142857 751.35050714286 C 2141.32037142857 744.50250714286 2140.39237142857 738.96650714286 2139.49637142857 734.74250714286 Z M 2137.19237142857 724.18250714286 C 2134.50437142857 713.62250714286 2130.92037142857 703.92650714286 2126.44037142857 695.09450714286 C 2121.96037142857 703.92650714286 2118.37637142857 713.62250714286 2115.68837142857 724.18250714286 L 2137.19237142857 724.18250714286 Z M 2177.12837142857 684.15050714286 L 2191.91237142857 684.15050714286 L 2191.91237142857 751.35050714286 L 2177.12837142857 751.35050714286 L 2177.12837142857 684.15050714286 Z M 2273.80037142857 750.87050714286 C 2272.07237142857 751.83050714286 2268.87237142857 752.31050714286 2264.20037142857 752.31050714286 C 2260.61637142857 752.31050714286 2258.21637142857 751.28650714286 2257.00037142857 749.23850714286 L 2244.32837142857 728.50250714286 C 2243.17637142857 726.58250714286 2242.23237142857 725.23850714286 2241.49637142857 724.47050714286 C 2240.76037142857 723.70250714286 2239.94437142857 723.19050714286 2239.04837142857 722.93450714286 C 2238.15237142857 722.67850714286 2236.80837142857 722.55050714286 2235.01637142857 722.55050714286 L 2234.34437142857 722.55050714286 L 2234.34437142857 751.35050714286 L 2219.56037142857 751.35050714286 L 2219.56037142857 684.15050714286 L 2234.34437142857 684.15050714286 L 2234.34437142857 712.75850714286 L 2238.66437142857 712.75850714286 L 2257.38437142857 684.15050714286 L 2273.03237142857 684.15050714286 L 2251.04837142857 716.31050714286 C 2253.67237142857 718.16650714286 2256.04037142857 720.91850714286 2258.15237142857 724.56650714286 L 2273.80037142857 750.87050714286 Z M 2305.76837142857 737.57450714286 C 2307.11237142857 738.95050714286 2307.78437142857 740.85450714286 2307.78437142857 743.28650714286 L 2307.78437142857 745.11050714286 C 2307.78437142857 748.05450714286 2307.38437142857 750.61450714286 2306.58437142857 752.79050714286 C 2305.78437142857 754.96650714286 2304.45637142857 757.46250714286 2302.60037142857 760.27850714286 C 2301.51237142857 761.87850714286 2300.47237142857 763.07850714286 2299.48037142857 763.87850714286 C 2298.48837142857 764.67850714286 2297.41637142857 765.07850714286 2296.26437142857 765.07850714286 C 2294.47237142857 765.07850714286 2292.93637142857 764.50250714286 2291.65637142857 763.35050714286 C 2294.28037142857 760.47050714286 2296.12037142857 758.31050714286 2297.17637142857 756.87050714286 C 2298.23237142857 755.43050714286 2298.92037142857 753.78250714286 2299.24037142857 751.92650714286 L 2298.28037142857 751.92650714286 C 2296.16837142857 751.92650714286 2294.50437142857 751.25450714286 2293.28837142857 749.91050714286 C 2292.07237142857 748.56650714286 2291.46437142857 746.80650714286 2291.46437142857 744.63050714286 L 2291.46437142857 742.80650714286 C 2291.46437142857 740.63050714286 2292.10437142857 738.87050714286 2293.38437142857 737.52650714286 C 2294.66437142857 736.18250714286 2296.36037142857 735.51050714286 2298.47237142857 735.51050714286 L 2300.48837142857 735.51050714286 C 2302.66437142857 735.51050714286 2304.42437142857 736.19850714286 2305.76837142857 737.57450714286 Z M 2405.03237142857 688.18250714286 C 2409.96037142857 690.87050714286 2413.73637142857 694.72650714286 2416.36037142857 699.75050714286 C 2418.98437142857 704.77450714286 2420.29637142857 710.77450714286 2420.29637142857 717.75050714286 C 2420.29637142857 724.47050714286 2418.93637142857 730.37450714286 2416.21637142857 735.46250714286 C 2413.49637142857 740.55050714286 2409.67237142857 744.47050714286 2404.74437142857 747.22250714286 C 2399.81637142857 749.97450714286 2394.05637142857 751.35050714286 2387.46437142857 751.35050714286 L 2364.71237142857 751.35050714286 L 2364.71237142857 684.15050714286 L 2387.46437142857 684.15050714286 C 2394.24837142857 684.15050714286 2400.10437142857 685.49450714286 2405.03237142857 688.18250714286 Z M 2400.32837142857 735.07850714286 C 2403.78437142857 731.01450714286 2405.51237142857 725.27050714286 2405.51237142857 717.84650714286 C 2405.51237142857 702.16650714286 2398.85637142857 694.32650714286 2385.54437142857 694.32650714286 L 2379.49637142857 694.32650714286 L 2379.49637142857 741.17450714286 L 2385.54437142857 741.17450714286 C 2391.94437142857 741.17450714286 2396.87237142857 739.14250714286 2400.32837142857 735.07850714286 Z M 2482.88837142857 741.17450714286 C 2482.88837142857 745.07850714286 2482.53637142857 747.75050714286 2481.83237142857 749.19050714286 C 2481.12837142857 750.63050714286 2479.81637142857 751.35050714286 2477.89637142857 751.35050714286 L 2439.78437142857 751.35050714286 L 2439.78437142857 684.15050714286 L 2481.83237142857 684.15050714286 L 2481.83237142857 694.32650714286 L 2454.56837142857 694.32650714286 L 2454.56837142857 711.60650714286 L 2477.22437142857 711.60650714286 L 2477.22437142857 721.78250714286 L 2454.56837142857 721.78250714286 L 2454.56837142857 741.17450714286 L 2482.88837142857 741.17450714286 Z M 2559.68837142857 750.87050714286 C 2557.96037142857 751.83050714286 2554.76037142857 752.31050714286 2550.08837142857 752.31050714286 C 2546.50437142857 752.31050714286 2544.10437142857 751.28650714286 2542.88837142857 749.23850714286 L 2530.21637142857 728.50250714286 C 2529.06437142857 726.58250714286 2528.12037142857 725.23850714286 2527.38437142857 724.47050714286 C 2526.64837142857 723.70250714286 2525.83237142857 723.19050714286 2524.93637142857 722.93450714286 C 2524.04037142857 722.67850714286 2522.69637142857 722.55050714286 2520.90437142857 722.55050714286 L 2520.23237142857 722.55050714286 L 2520.23237142857 751.35050714286 L 2505.44837142857 751.35050714286 L 2505.44837142857 684.15050714286 L 2520.23237142857 684.15050714286 L 2520.23237142857 712.75850714286 L 2524.55237142857 712.75850714286 L 2543.27237142857 684.15050714286 L 2558.92037142857 684.15050714286 L 2536.93637142857 716.31050714286 C 2539.56037142857 718.16650714286 2541.92837142857 720.91850714286 2544.04037142857 724.56650714286 L 2559.68837142857 750.87050714286 Z M 2615.46437142857 734.74250714286 L 2589.35237142857 734.74250714286 C 2588.45637142857 738.96650714286 2587.52837142857 744.50250714286 2586.56837142857 751.35050714286 L 2572.16837142857 751.35050714286 C 2574.60037142857 728.11850714286 2582.21637142857 705.71850714286 2595.01637142857 684.15050714286 L 2609.89637142857 684.15050714286 C 2622.63237142857 705.59050714286 2630.21637142857 727.99050714286 2632.64837142857 751.35050714286 L 2618.24837142857 751.35050714286 C 2617.28837142857 744.50250714286 2616.36037142857 738.96650714286 2615.46437142857 734.74250714286 Z M 2613.16037142857 724.18250714286 C 2610.47237142857 713.62250714286 2606.88837142857 703.92650714286 2602.40837142857 695.09450714286 C 2597.92837142857 703.92650714286 2594.34437142857 713.62250714286 2591.65637142857 724.18250714286 L 2613.16037142857 724.18250714286 Z M 2689.09637142857 688.37450714286 C 2689.09637142857 690.55050714286 2688.74437142857 692.15050714286 2688.04037142857 693.17450714286 C 2687.33637142857 694.19850714286 2686.21637142857 694.71050714286 2684.68037142857 694.71050714286 L 2671.81637142857 694.71050714286 L 2671.81637142857 751.35050714286 L 2657.22437142857 751.35050714286 L 2657.22437142857 694.71050714286 L 2640.32837142857 694.71050714286 L 2640.32837142857 684.15050714286 L 2688.71237142857 684.15050714286 C 2688.96837142857 685.68650714286 2689.09637142857 687.09450714286 2689.09637142857 688.37450714286 Z M 2780.77637142857 688.18250714286 C 2785.70437142857 690.87050714286 2789.48037142857 694.72650714286 2792.10437142857 699.75050714286 C 2794.72837142857 704.77450714286 2796.04037142857 710.77450714286 2796.04037142857 717.75050714286 C 2796.04037142857 724.47050714286 2794.68037142857 730.37450714286 2791.96037142857 735.46250714286 C 2789.24037142857 740.55050714286 2785.41637142857 744.47050714286 2780.48837142857 747.22250714286 C 2775.56037142857 749.97450714286 2769.80037142857 751.35050714286 2763.20837142857 751.35050714286 L 2740.45637142857 751.35050714286 L 2740.45637142857 684.15050714286 L 2763.20837142857 684.15050714286 C 2769.99237142857 684.15050714286 2775.84837142857 685.49450714286 2780.77637142857 688.18250714286 Z M 2776.07237142857 735.07850714286 C 2779.52837142857 731.01450714286 2781.25637142857 725.27050714286 2781.25637142857 717.84650714286 C 2781.25637142857 702.16650714286 2774.60037142857 694.32650714286 2761.28837142857 694.32650714286 L 2755.24037142857 694.32650714286 L 2755.24037142857 741.17450714286 L 2761.28837142857 741.17450714286 C 2767.68837142857 741.17450714286 2772.61637142857 739.14250714286 2776.07237142857 735.07850714286 Z M 2853.92837142857 734.74250714286 L 2827.81637142857 734.74250714286 C 2826.92037142857 738.96650714286 2825.99237142857 744.50250714286 2825.03237142857 751.35050714286 L 2810.63237142857 751.35050714286 C 2813.06437142857 728.11850714286 2820.68037142857 705.71850714286 2833.48037142857 684.15050714286 L 2848.36037142857 684.15050714286 C 2861.09637142857 705.59050714286 2868.68037142857 727.99050714286 2871.11237142857 751.35050714286 L 2856.71237142857 751.35050714286 C 2855.75237142857 744.50250714286 2854.82437142857 738.96650714286 2853.92837142857 734.74250714286 Z M 2851.62437142857 724.18250714286 C 2848.93637142857 713.62250714286 2845.35237142857 703.92650714286 2840.87237142857 695.09450714286 C 2836.39237142857 703.92650714286 2832.80837142857 713.62250714286 2830.12037142857 724.18250714286 L 2851.62437142857 724.18250714286 Z M 2942.82437142857 745.20650714286 C 2942.95237142857 746.99850714286 2943.01637142857 748.18250714286 2943.01637142857 748.75850714286 C 2943.01637142857 750.48650714286 2942.18437142857 751.35050714286 2940.52037142857 751.35050714286 L 2928.04037142857 751.35050714286 L 2928.04037142857 748.08650714286 C 2928.04037142857 744.88650714286 2926.79237142857 741.33450714286 2924.29637142857 737.43050714286 L 2903.08037142857 704.79050714286 L 2903.08037142857 751.35050714286 L 2888.48837142857 751.35050714286 L 2888.48837142857 684.15050714286 L 2901.73637142857 684.15050714286 C 2902.56837142857 684.15050714286 2903.25637142857 684.26250714286 2903.80037142857 684.48650714286 C 2904.34437142857 684.71050714286 2904.87237142857 685.23850714286 2905.38437142857 686.07050714286 L 2928.04037142857 720.53450714286 L 2928.04037142857 684.15050714286 L 2942.63237142857 684.15050714286 L 2942.63237142857 738.19850714286 C 2942.63237142857 740.18250714286 2942.69637142857 742.51850714286 2942.82437142857 745.20650714286 Z M 3043.52837142857 688.37450714286 C 3043.52837142857 690.55050714286 3043.17637142857 692.15050714286 3042.47237142857 693.17450714286 C 3041.76837142857 694.19850714286 3040.64837142857 694.71050714286 3039.11237142857 694.71050714286 L 3026.24837142857 694.71050714286 L 3026.24837142857 751.35050714286 L 3011.65637142857 751.35050714286 L 3011.65637142857 694.71050714286 L 2994.76037142857 694.71050714286 L 2994.76037142857 684.15050714286 L 3043.14437142857 684.15050714286 C 3043.40037142857 685.68650714286 3043.52837142857 687.09450714286 3043.52837142857 688.37450714286 Z M 3103.62437142857 741.17450714286 C 3103.62437142857 745.07850714286 3103.27237142857 747.75050714286 3102.56837142857 749.19050714286 C 3101.86437142857 750.63050714286 3100.55237142857 751.35050714286 3098.63237142857 751.35050714286 L 3060.52037142857 751.35050714286 L 3060.52037142857 684.15050714286 L 3102.56837142857 684.15050714286 L 3102.56837142857 694.32650714286 L 3075.30437142857 694.32650714286 L 3075.30437142857 711.60650714286 L 3097.96037142857 711.60650714286 L 3097.96037142857 721.78250714286 L 3075.30437142857 721.78250714286 L 3075.30437142857 741.17450714286 L 3103.62437142857 741.17450714286 Z M 3176.58437142857 750.10250714286 C 3175.94437142857 750.67850714286 3174.82437142857 751.15850714286 3173.22437142857 751.54250714286 C 3171.62437142857 751.92650714286 3169.96037142857 752.11850714286 3168.23237142857 752.11850714286 C 3166.05637142857 752.11850714286 3164.39237142857 751.83050714286 3163.24037142857 751.25450714286 C 3162.08837142857 750.67850714286 3161.19237142857 749.68650714286 3160.55237142857 748.27850714286 L 3153.44837142857 732.34250714286 C 3152.36037142857 729.97450714286 3151.20837142857 728.37450714286 3149.99237142857 727.54250714286 C 3148.77637142857 726.71050714286 3146.98437142857 726.29450714286 3144.61637142857 726.29450714286 L 3139.62437142857 726.29450714286 L 3139.62437142857 751.35050714286 L 3124.84037142857 751.35050714286 L 3124.84037142857 684.15050714286 L 3147.68837142857 684.15050714286 C 3156.26437142857 684.15050714286 3162.85637142857 685.97450714286 3167.46437142857 689.62250714286 C 3172.07237142857 693.27050714286 3174.37637142857 698.48650714286 3174.37637142857 705.27050714286 C 3174.37637142857 709.43050714286 3173.36837142857 712.99850714286 3171.35237142857 715.97450714286 C 3169.33637142857 718.95050714286 3166.40837142857 721.20650714286 3162.56837142857 722.74250714286 C 3164.29637142857 724.53450714286 3165.73637142857 726.71050714286 3166.88837142857 729.27050714286 L 3176.58437142857 750.10250714286 Z M 3146.72837142857 715.92650714286 C 3151.20837142857 715.92650714286 3154.44037142857 715.09450714286 3156.42437142857 713.43050714286 C 3158.40837142857 711.76650714286 3159.40037142857 709.04650714286 3159.40037142857 705.27050714286 C 3159.40037142857 701.49450714286 3158.40837142857 698.75850714286 3156.42437142857 697.06250714286 C 3154.44037142857 695.36650714286 3151.20837142857 694.51850714286 3146.72837142857 694.51850714286 L 3139.62437142857 694.51850714286 L 3139.62437142857 715.92650714286 L 3146.72837142857 715.92650714286 Z M 3202.64837142857 746.02250714286 C 3198.13637142857 741.83050714286 3195.88037142857 735.57450714286 3195.88037142857 727.25450714286 L 3195.88037142857 684.15050714286 L 3210.66437142857 684.15050714286 L 3210.66437142857 729.36650714286 C 3210.66437142857 733.33450714286 3211.70437142857 736.39050714286 3213.78437142857 738.53450714286 C 3215.86437142857 740.67850714286 3218.85637142857 741.75050714286 3222.76037142857 741.75050714286 C 3230.76037142857 741.75050714286 3234.76037142857 737.62250714286 3234.76037142857 729.36650714286 L 3234.76037142857 684.15050714286 L 3249.54437142857 684.15050714286 L 3249.54437142857 727.25450714286 C 3249.54437142857 735.70250714286 3247.33637142857 741.99050714286 3242.92037142857 746.11850714286 C 3238.50437142857 750.24650714286 3231.78437142857 752.31050714286 3222.76037142857 752.31050714286 C 3213.86437142857 752.31050714286 3207.16037142857 750.21450714286 3202.64837142857 746.02250714286 Z M 3314.53637142857 689.71850714286 C 3319.08037142857 693.43050714286 3321.35237142857 698.87050714286 3321.35237142857 706.03850714286 C 3321.35237142857 713.39850714286 3319.03237142857 719.09450714286 3314.39237142857 723.12650714286 C 3309.75237142857 727.15850714286 3303.17637142857 729.17450714286 3294.66437142857 729.17450714286 L 3288.52037142857 729.17450714286 L 3288.52037142857 751.35050714286 L 3273.73637142857 751.35050714286 L 3273.73637142857 684.15050714286 L 3294.66437142857 684.15050714286 C 3303.36837142857 684.15050714286 3309.99237142857 686.00650714286 3314.53637142857 689.71850714286 Z M 3303.40037142857 715.35050714286 C 3305.38437142857 713.43050714286 3306.37637142857 710.32650714286 3306.37637142857 706.03850714286 C 3306.37637142857 701.81450714286 3305.38437142857 698.77450714286 3303.40037142857 696.91850714286 C 3301.41637142857 695.06250714286 3298.18437142857 694.13450714286 3293.70437142857 694.13450714286 L 3288.52037142857 694.13450714286 L 3288.52037142857 718.23050714286 L 3293.70437142857 718.23050714286 C 3298.18437142857 718.23050714286 3301.41637142857 717.27050714286 3303.40037142857 715.35050714286 Z M 3381.73637142857 688.18250714286 C 3386.66437142857 690.87050714286 3390.44037142857 694.72650714286 3393.06437142857 699.75050714286 C 3395.68837142857 704.77450714286 3397.00037142857 710.77450714286 3397.00037142857 717.75050714286 C 3397.00037142857 724.47050714286 3395.64037142857 730.37450714286 3392.92037142857 735.46250714286 C 3390.20037142857 740.55050714286 3386.37637142857 744.47050714286 3381.44837142857 747.22250714286 C 3376.52037142857 749.97450714286 3370.76037142857 751.35050714286 3364.16837142857 751.35050714286 L 3341.41637142857 751.35050714286 L 3341.41637142857 684.15050714286 L 3364.16837142857 684.15050714286 C 3370.95237142857 684.15050714286 3376.80837142857 685.49450714286 3381.73637142857 688.18250714286 Z M 3377.03237142857 735.07850714286 C 3380.48837142857 731.01450714286 3382.21637142857 725.27050714286 3382.21637142857 717.84650714286 C 3382.21637142857 702.16650714286 3375.56037142857 694.32650714286 3362.24837142857 694.32650714286 L 3356.20037142857 694.32650714286 L 3356.20037142857 741.17450714286 L 3362.24837142857 741.17450714286 C 3368.64837142857 741.17450714286 3373.57637142857 739.14250714286 3377.03237142857 735.07850714286 Z M 3454.88837142857 734.74250714286 L 3428.77637142857 734.74250714286 C 3427.88037142857 738.96650714286 3426.95237142857 744.50250714286 3425.99237142857 751.35050714286 L 3411.59237142857 751.35050714286 C 3414.02437142857 728.11850714286 3421.64037142857 705.71850714286 3434.44037142857 684.15050714286 L 3449.32037142857 684.15050714286 C 3462.05637142857 705.59050714286 3469.64037142857 727.99050714286 3472.07237142857 751.35050714286 L 3457.67237142857 751.35050714286 C 3456.71237142857 744.50250714286 3455.78437142857 738.96650714286 3454.88837142857 734.74250714286 Z M 3452.58437142857 724.18250714286 C 3449.89637142857 713.62250714286 3446.31237142857 703.92650714286 3441.83237142857 695.09450714286 C 3437.35237142857 703.92650714286 3433.76837142857 713.62250714286 3431.08037142857 724.18250714286 L 3452.58437142857 724.18250714286 Z M 3528.52037142857 688.37450714286 C 3528.52037142857 690.55050714286 3528.16837142857 692.15050714286 3527.46437142857 693.17450714286 C 3526.76037142857 694.19850714286 3525.64037142857 694.71050714286 3524.10437142857 694.71050714286 L 3511.24037142857 694.71050714286 L 3511.24037142857 751.35050714286 L 3496.64837142857 751.35050714286 L 3496.64837142857 694.71050714286 L 3479.75237142857 694.71050714286 L 3479.75237142857 684.15050714286 L 3528.13637142857 684.15050714286 C 3528.39237142857 685.68650714286 3528.52037142857 687.09450714286 3528.52037142857 688.37450714286 Z M 3588.61637142857 741.17450714286 C 3588.61637142857 745.07850714286 3588.26437142857 747.75050714286 3587.56037142857 749.19050714286 C 3586.85637142857 750.63050714286 3585.54437142857 751.35050714286 3583.62437142857 751.35050714286 L 3545.51237142857 751.35050714286 L 3545.51237142857 684.15050714286 L 3587.56037142857 684.15050714286 L 3587.56037142857 694.32650714286 L 3560.29637142857 694.32650714286 L 3560.29637142857 711.60650714286 L 3582.95237142857 711.60650714286 L 3582.95237142857 721.78250714286 L 3560.29637142857 721.78250714286 L 3560.29637142857 741.17450714286 L 3588.61637142857 741.17450714286 Z"/></svg>