<svg xmlns="http://www.w3.org/2000/svg" width="1106" height="379" viewBox="0 0 1106 379" version="1.1"><path d="M 422 1.372 C 422 2.267, 421.550 3, 421 3 C 420.450 3, 420 3.442, 420 3.982 C 420 4.523, 418.200 7.906, 416 11.500 C 413.800 15.094, 412 18.477, 412 19.018 C 412 19.558, 411.550 20, 411 20 C 410.450 20, 410 20.434, 410 20.965 C 410 21.496, 407.525 26.011, 404.500 31 C 401.475 35.989, 399 40.244, 399 40.456 C 399 40.668, 396.750 44.469, 394 48.903 C 391.250 53.337, 389 57.423, 389 57.982 C 389 58.542, 388.550 59, 388 59 C 387.450 59, 387 59.458, 387 60.018 C 387 60.577, 384.750 64.663, 382 69.097 C 379.250 73.531, 377 77.392, 377 77.677 C 377 77.962, 374.525 82.197, 371.500 87.087 C 368.475 91.977, 366 96.173, 366 96.410 C 366 96.647, 363.750 100.469, 361 104.903 C 358.250 109.337, 355.986 113.310, 355.969 113.732 C 355.916 115.018, 352.012 117.334, 340.275 123.042 C 334.101 126.044, 329.189 128.950, 329.358 129.500 C 329.547 130.113, 335.949 130.500, 345.896 130.500 L 362.126 130.500 363.813 127.500 C 364.741 125.850, 365.770 124.275, 366.100 124 C 366.431 123.725, 368.185 120.817, 369.998 117.538 C 371.812 114.259, 374.804 109.218, 376.648 106.336 C 378.492 103.454, 380 100.854, 380 100.557 C 380 100.261, 383.527 94.277, 387.838 87.259 C 402.244 63.809, 411 48.958, 411 47.975 C 411 47.439, 411.450 47, 412 47 C 412.550 47, 413 46.558, 413 46.018 C 413 45.477, 414.800 42.094, 417 38.500 C 419.200 34.906, 421 31.523, 421 30.982 C 421 30.442, 421.398 30, 421.883 30 C 422.369 30, 423.051 29.212, 423.399 28.250 C 423.747 27.288, 424.590 25.600, 425.271 24.500 C 425.953 23.400, 427.604 20.588, 428.940 18.250 C 430.275 15.913, 431.697 14, 432.098 14 C 432.499 14, 435.218 17.038, 438.140 20.750 C 441.062 24.462, 443.688 27.725, 443.976 28 C 444.502 28.502, 452.806 38.628, 454.227 40.500 C 454.996 41.513, 457.481 44.686, 466.485 56.152 C 469.226 59.643, 471.713 62.725, 472.011 63 C 472.308 63.275, 474.115 65.524, 476.026 67.997 C 477.937 70.470, 480.252 73.395, 481.171 74.497 C 482.090 75.599, 486.579 81.225, 491.146 87 C 495.714 92.775, 499.912 97.983, 500.475 98.574 C 501.039 99.165, 502.625 101.130, 504 102.941 C 505.375 104.752, 507.850 107.864, 509.500 109.858 C 511.150 111.851, 512.843 113.936, 513.262 114.491 C 516.437 118.697, 520.646 124.094, 523.212 127.250 L 526.260 131 545.059 131 C 559.413 131, 564.170 130.684, 565.179 129.665 C 565.905 128.930, 568.075 126.365, 570 123.964 C 571.925 121.563, 574.649 118.226, 576.054 116.549 C 577.458 114.872, 579.483 112.322, 580.554 110.883 C 581.624 109.443, 586.550 103.330, 591.500 97.299 C 596.450 91.267, 601.850 84.597, 603.500 82.476 C 605.150 80.355, 607.850 76.985, 609.500 74.986 C 613.086 70.642, 617.646 64.996, 624.762 56.088 C 627.656 52.464, 630.581 48.844, 631.262 48.042 C 631.943 47.240, 635.577 42.740, 639.337 38.042 C 649.461 25.393, 652.211 22.030, 655.234 18.601 C 656.738 16.895, 657.975 15.162, 657.984 14.750 C 657.993 14.338, 658.379 14, 658.842 14 C 659.571 14, 669.009 28.861, 674.781 39.097 C 675.836 40.969, 678.567 45.545, 680.850 49.268 C 683.132 52.990, 685 56.477, 685 57.018 C 685 57.558, 685.398 58, 685.883 58 C 686.369 58, 687.031 58.787, 687.354 59.750 C 687.678 60.712, 688.388 62.175, 688.933 63 C 691.282 66.557, 699.717 80.815, 701.504 84.250 C 702.577 86.313, 703.802 88, 704.227 88 C 704.652 88, 705 88.440, 705 88.977 C 705 89.926, 710.837 99.896, 723.455 120.500 L 729.579 130.500 745.463 130.776 C 754.199 130.928, 761.751 130.649, 762.244 130.156 C 763.136 129.264, 757.564 125.471, 749.500 121.480 C 747.300 120.391, 745.275 119.271, 745 118.990 C 744.725 118.710, 742.700 117.590, 740.500 116.501 C 736.111 114.329, 732 111.109, 732 109.843 C 732 109.399, 730.200 106.094, 728 102.500 C 725.800 98.906, 724 95.737, 724 95.458 C 724 95.179, 722.200 92.101, 720 88.617 C 717.800 85.134, 716 81.770, 716 81.142 C 716 80.514, 715.550 80, 715 80 C 714.450 80, 714 79.607, 714 79.126 C 714 78.646, 711.075 73.189, 707.500 67 C 703.925 60.811, 701 55.354, 701 54.874 C 701 54.393, 700.550 54, 700 54 C 699.450 54, 699 53.486, 699 52.858 C 699 52.230, 697.200 48.866, 695 45.383 C 692.800 41.899, 691 38.821, 691 38.542 C 691 38.263, 689.200 35.094, 687 31.500 C 684.800 27.906, 683 24.523, 683 23.982 C 683 23.442, 682.602 23, 682.117 23 C 681.631 23, 680.974 22.212, 680.657 21.250 C 680.341 20.288, 679.045 17.700, 677.779 15.500 C 667.969 -1.541, 669.079 -0.175, 665.644 0.569 C 663.915 0.944, 662.275 1.549, 662 1.914 C 661.725 2.278, 658.688 3.459, 655.250 4.538 C 651.813 5.617, 649 6.787, 649 7.139 C 649 7.490, 647.370 8.083, 645.377 8.457 C 643.384 8.831, 640.909 9.556, 639.877 10.068 C 638.845 10.581, 637.106 11.450, 636.014 12 C 634.921 12.550, 633.527 13, 632.915 13 C 632.303 13, 630.384 13.633, 628.651 14.406 C 626.918 15.179, 623.250 16.606, 620.500 17.578 C 617.750 18.549, 615.050 19.635, 614.500 19.989 C 613.950 20.344, 610.800 21.502, 607.500 22.563 C 604.200 23.624, 601.275 24.720, 601 25 C 600.725 25.280, 597.800 26.389, 594.500 27.466 C 591.200 28.542, 588.275 29.711, 588 30.063 C 587.725 30.414, 586.375 30.966, 585 31.290 C 580.292 32.396, 575 34.489, 575 35.245 C 575 35.660, 574.056 36, 572.901 36 C 570.983 36, 566.137 37.777, 561.764 40.084 C 560.809 40.588, 559.527 41, 558.915 41 C 558.303 41, 556.384 41.622, 554.651 42.383 C 545.137 46.558, 546.082 46.559, 536.349 42.359 C 534.616 41.612, 532.568 41, 531.799 41 C 531.029 41, 529.973 40.609, 529.450 40.131 C 528.928 39.654, 526.250 38.474, 523.500 37.509 C 520.750 36.544, 516.637 34.931, 514.360 33.924 C 512.084 32.917, 508.934 31.785, 507.360 31.409 C 505.787 31.032, 504.050 30.400, 503.500 30.003 C 502.950 29.606, 500.250 28.465, 497.500 27.468 C 494.750 26.471, 492.050 25.345, 491.500 24.966 C 490.950 24.586, 489.180 23.960, 487.567 23.573 C 485.954 23.186, 482.832 21.999, 480.630 20.935 C 478.427 19.871, 476.146 18.997, 475.562 18.994 C 474.978 18.990, 473.375 18.402, 472 17.687 C 470.625 16.972, 466.691 15.512, 463.259 14.443 C 459.826 13.374, 457.013 12.162, 457.009 11.750 C 457.004 11.338, 456.127 11, 455.059 11 C 453.991 11, 452.864 10.589, 452.554 10.087 C 452.243 9.585, 450.192 8.870, 447.995 8.499 C 445.798 8.128, 444 7.414, 444 6.912 C 444 6.410, 443.340 6, 442.534 6 C 441.193 6, 436.013 4.021, 431.794 1.897 C 430.855 1.424, 428.268 0.747, 426.044 0.391 C 422.710 -0.142, 422 0.030, 422 1.372 M 430.079 35.750 C 428.999 37.813, 426.969 41.525, 425.566 44 C 421.115 51.851, 415.780 63.113, 416.276 63.609 C 416.794 64.127, 425.263 54.275, 429.736 47.951 C 431.256 45.801, 432.815 44.033, 433.201 44.021 C 433.586 44.010, 437.144 48.388, 441.108 53.750 C 447.704 62.675, 470.635 91.824, 471.985 93 C 472.301 93.275, 475.992 97.550, 480.188 102.500 C 490.634 114.825, 503.892 128.731, 503.951 127.427 C 504.074 124.723, 480.725 91.089, 462.199 67.285 C 447.997 49.036, 433.811 32, 432.817 32 C 432.390 32, 431.158 33.688, 430.079 35.750 M 648.763 43.250 C 626.932 69.207, 601.451 103.802, 589.102 124.250 C 578.386 141.993, 623.705 90.027, 651 53.274 L 658.500 43.175 665.706 50.837 C 673.380 58.998, 674.560 59.011, 670.444 50.890 C 667.693 45.460, 659.267 32, 658.619 32 C 658.402 32, 653.967 37.063, 648.763 43.250 M 412.427 83.330 C 412.123 84.123, 412.015 86.735, 412.187 89.136 L 412.500 93.500 417.802 93.804 L 423.103 94.108 422.802 88.304 L 422.500 82.500 417.740 82.195 C 414.305 81.975, 412.826 82.291, 412.427 83.330 M 428.427 83.330 C 428.123 84.123, 428.015 86.735, 428.187 89.136 L 428.500 93.500 433.500 93.500 L 438.500 93.500 438.500 88 L 438.500 82.500 433.740 82.195 C 430.305 81.975, 428.826 82.291, 428.427 83.330 M 649.427 83.330 C 649.123 84.123, 649.015 86.735, 649.187 89.136 L 649.500 93.500 654.500 93.500 L 659.500 93.500 659.500 88 L 659.500 82.500 654.740 82.195 C 651.305 81.975, 649.826 82.291, 649.427 83.330 M 665.427 83.330 C 665.123 84.123, 665.015 86.735, 665.187 89.136 L 665.500 93.500 670.500 93.500 L 675.500 93.500 675.500 88 L 675.500 82.500 670.740 82.195 C 667.305 81.975, 665.826 82.291, 665.427 83.330 M 412.667 98.667 C 412.300 99.033, 412 101.508, 412 104.167 L 412 109 417.500 109 L 423 109 423 103.500 L 423 98 418.167 98 C 415.508 98, 413.033 98.300, 412.667 98.667 M 428 103.448 L 428 109 433.552 109 L 439.105 109 438.802 103.750 L 438.500 98.500 433.250 98.198 L 428 97.895 428 103.448 M 649.667 98.667 C 649.300 99.033, 649 101.508, 649 104.167 L 649 109 654.500 109 L 660 109 660 103.500 L 660 98 655.167 98 C 652.508 98, 650.033 98.300, 649.667 98.667 M 665 103.500 L 665 109 670.500 109 L 676 109 676 103.500 L 676 98 670.500 98 L 665 98 665 103.500" stroke="none" fill="#f9090c" fill-rule="evenodd"/><path d="M 300.750 197.651 C 299.128 198.110, 299 200.594, 299 231.573 L 299 265 307.973 265 L 316.947 265 317.223 250.299 L 317.500 235.597 325.330 250.335 L 333.160 265.073 342.330 264.786 L 351.500 264.500 351.500 231.523 L 351.500 198.546 346.973 197.787 C 344.483 197.370, 340.433 197.371, 337.973 197.790 L 333.500 198.551 333 212.512 L 332.500 226.472 325.759 213.366 C 322.052 206.158, 318.452 199.802, 317.759 199.241 C 316.342 198.094, 303.444 196.889, 300.750 197.651 M 378.385 198.617 C 367.751 202.389, 360.002 214.248, 359.208 227.968 C 358.166 245.962, 365.931 260.159, 379.230 264.576 C 385.543 266.673, 402.625 266.176, 408.250 263.732 L 412 262.102 412 246.520 C 412 232.620, 411.811 230.860, 410.250 230.219 C 408.303 229.419, 398.342 229.324, 397.569 230.098 C 397.297 230.370, 396.721 234.171, 396.288 238.546 C 395.504 246.457, 395.484 246.501, 392.500 246.772 C 388.417 247.142, 383.197 243.715, 381.440 239.510 C 378.200 231.757, 380.469 220.926, 386.019 217.648 C 389.578 215.545, 396.200 215.535, 400.243 217.626 C 403.347 219.231, 403.421 219.212, 406.144 216.165 C 409.052 212.910, 411.329 206.324, 410.809 202.673 C 410.108 197.746, 388.471 195.040, 378.385 198.617 M 421.035 198.934 C 419.923 201.013, 419.527 260.603, 420.607 263.418 C 421.131 264.783, 423.791 265, 439.990 265 C 461.337 265, 459.958 265.632, 459.986 255.832 C 460.009 248.014, 459.991 248, 449.393 248 L 440 248 440 243.500 L 440 239 446.393 239 C 453.598 239, 454 238.604, 454 231.500 C 454 224.396, 453.598 224, 446.393 224 L 440 224 440 219.500 L 440 215 449.375 215 L 458.750 215 459.375 211.875 C 460.281 207.347, 460.143 202.506, 459.025 199.565 L 458.050 197 440.060 197 C 423.298 197, 422 197.132, 421.035 198.934 M 469.737 197.692 C 468.090 198.121, 467.991 200.349, 468.237 231.326 L 468.500 264.500 478 264.500 L 487.500 264.500 488 252.743 L 488.500 240.986 494.318 251.984 C 500.281 263.257, 502.715 266, 506.756 266 C 509.346 266, 517.248 262.239, 520.941 259.249 L 523.363 257.288 514.344 244.894 C 509.384 238.077, 505.021 231.969, 504.647 231.319 C 504.273 230.670, 507.612 223.553, 512.066 215.504 C 516.519 207.454, 519.937 200.279, 519.661 199.559 C 519.059 197.991, 505.745 196.524, 501.588 197.567 C 499.217 198.162, 497.982 199.962, 493.478 209.385 L 488.165 220.500 488.083 209.725 C 488.001 199.112, 487.962 198.936, 485.435 197.975 C 482.871 197.001, 473.066 196.824, 469.737 197.692 M 542.416 199.820 C 535.300 203.256, 530.047 209.121, 527.474 216.500 C 525.414 222.406, 525.030 238.357, 526.798 244.515 C 529.540 254.067, 537.857 262.804, 546.404 265.112 C 552.622 266.791, 565.683 265.767, 570.634 263.211 C 582.266 257.208, 587.884 245.037, 586.722 228.359 C 586.421 224.036, 585.673 218.845, 585.061 216.823 C 583.100 210.353, 577.916 203.901, 572.044 200.621 C 567.305 197.975, 565.400 197.529, 557.544 197.228 C 549.211 196.910, 548.022 197.113, 542.416 199.820 M 607.500 198.151 C 602.466 200.004, 597.879 204.055, 595.913 208.384 C 592.242 216.468, 594.204 228.271, 600.118 233.678 C 601.428 234.875, 605.200 237.367, 608.500 239.215 C 612.477 241.443, 614.604 243.293, 614.808 244.703 C 615.388 248.702, 608.121 247.996, 600.738 243.335 C 598.578 241.971, 596.686 241.001, 596.533 241.178 C 595.051 242.892, 592.847 248.836, 592.352 252.451 C 591.783 256.597, 591.996 257.196, 595.165 260.365 C 599.324 264.524, 604.163 265.987, 613.782 265.994 C 625.912 266.004, 633.716 261.064, 636.527 251.596 C 640.648 237.719, 636.165 229.071, 621.237 222.103 C 615.982 219.650, 614.160 217.440, 615.933 215.667 C 617.174 214.426, 624.462 214.642, 626.991 215.995 C 630.588 217.920, 631.820 217.098, 633.978 211.329 C 636.725 203.987, 636.357 200.932, 632.500 199.055 C 628.760 197.236, 611.666 196.617, 607.500 198.151 M 647.237 197.707 L 644.973 198.143 645.237 231.321 L 645.500 264.500 655.219 264.786 L 664.938 265.072 665.219 252.786 L 665.500 240.500 671.840 252.263 C 678.318 264.281, 679.900 266, 684.484 266 C 688.450 266, 700 259.375, 700 257.101 C 700 256.662, 695.784 250.469, 690.632 243.338 L 681.264 230.373 689.777 215.085 C 695.964 203.974, 697.949 199.587, 697.042 199.026 C 695.140 197.851, 683.304 196.852, 679.571 197.553 C 676.486 198.131, 675.888 198.961, 670.719 209.837 L 665.175 221.500 665.087 209.875 L 665 198.250 661.875 197.625 C 658.522 196.954, 650.931 196.997, 647.237 197.707 M 740.500 197.858 L 736.500 198.500 736.240 221.500 C 736.012 241.695, 735.776 244.652, 734.299 245.750 C 732.076 247.403, 728.839 247.334, 726.441 245.582 C 724.645 244.271, 724.463 242.460, 724 221.332 L 723.500 198.500 713.500 198.500 L 703.500 198.500 703.500 224.666 L 703.500 250.832 706.500 255.062 C 708.231 257.503, 711.827 260.606, 715 262.396 C 720.184 265.322, 721.103 265.500, 731 265.500 C 739.935 265.500, 742.119 265.169, 745.653 263.279 C 751.340 260.238, 755.695 254.650, 756.954 248.779 C 758.141 243.246, 758.400 199.355, 757.250 198.673 C 755.753 197.784, 744.402 197.232, 740.500 197.858 M 761.750 197.716 C 760.237 197.945, 759 198.332, 759 198.576 C 759 198.819, 763.725 208.460, 769.500 220 L 780 240.982 780 252.452 L 780 263.923 784.029 265.008 C 789.656 266.523, 799.775 265.288, 801.036 262.932 C 801.566 261.942, 802 255.930, 802 249.572 L 802 238.013 811.714 218.554 C 817.057 207.852, 821.070 198.736, 820.631 198.298 C 820.192 197.859, 815.845 197.520, 810.971 197.545 C 800.055 197.601, 799.533 197.998, 794.452 210.115 L 790.672 219.129 787.080 209.315 C 783.734 200.175, 783.247 199.418, 779.994 198.306 C 776.621 197.154, 767.425 196.857, 761.750 197.716 M 550.707 218.016 C 547.212 220.765, 545.701 225.969, 546.187 233.588 C 546.677 241.285, 549.078 245.091, 554.278 246.410 C 561.278 248.186, 566.139 242.153, 566.167 231.654 C 566.187 224.246, 565.040 220.963, 561.440 218.131 C 558.036 215.454, 554.019 215.411, 550.707 218.016 M 20 340 L 20 357 23 357 L 26 357 26 340 L 26 323 23 323 L 20 323 20 340 M 34.693 323.694 C 34.420 324.137, 34.145 331.813, 34.082 340.750 L 33.966 357 36.952 357 L 39.938 357 40.219 344.825 L 40.500 332.649 48 344.818 C 55.098 356.334, 55.674 356.987, 58.750 356.993 L 62 357 62 340 L 62 323 59.032 323 L 56.063 323 55.782 334.414 L 55.500 345.829 48.454 334.664 C 42.179 324.722, 41.067 323.466, 38.298 323.194 C 36.587 323.025, 34.965 323.250, 34.693 323.694 M 70.667 323.667 C 70.300 324.033, 70 331.683, 70 340.667 L 70 357 73.500 357 L 77 357 77 350 L 77 343 83.500 343 C 89.767 343, 90 342.910, 90 340.500 C 90 338.090, 89.767 338, 83.500 338 L 77 338 77 333 L 77 328 84.500 328 C 91.833 328, 92 327.944, 92 325.500 L 92 323 81.667 323 C 75.983 323, 71.033 323.300, 70.667 323.667 M 103.678 324.484 C 97.204 327.861, 94.259 335.821, 96.030 345.160 C 97.575 353.303, 103.130 358.003, 111.200 357.996 C 116.083 357.992, 121.040 355.395, 123.587 351.507 C 127.336 345.786, 127.171 333.857, 123.269 328.496 C 119.519 323.344, 109.713 321.336, 103.678 324.484 M 144.726 323.607 C 144.342 323.991, 144.040 331.662, 144.056 340.653 L 144.084 357 147.542 357 L 151 357 151.046 350.250 L 151.093 343.500 157.296 350.250 C 162.514 355.928, 164.017 357.001, 166.750 357 C 168.537 357, 170 356.723, 170 356.385 C 170 356.047, 166.865 352.166, 163.033 347.760 L 156.065 339.750 162.533 332.200 C 166.090 328.048, 169 324.279, 169 323.825 C 169 323.371, 167.705 323, 166.122 323 C 163.822 323, 162.065 324.346, 157.372 329.699 L 151.500 336.398 151 329.949 C 150.534 323.944, 150.325 323.480, 147.963 323.204 C 146.567 323.041, 145.111 323.223, 144.726 323.607 M 180.396 324.429 C 175.132 326.721, 172.557 331.465, 172.219 339.496 C 171.973 345.330, 172.305 347.151, 174.212 350.396 C 180.298 360.758, 195.341 360.513, 200.750 349.964 C 205.314 341.064, 202.441 328.469, 195 324.752 C 190.858 322.683, 184.720 322.547, 180.396 324.429 M 213.357 323.938 C 208.408 326.060, 206.415 333.291, 209.546 337.763 C 210.515 339.146, 213.693 340.760, 218.052 342.084 C 223.716 343.805, 225.124 344.648, 225.618 346.612 C 226.476 350.031, 224.406 352, 219.954 352 C 217.369 352, 215.212 351.208, 213.210 349.524 C 210.370 347.134, 210.209 347.111, 208.610 348.879 C 206.350 351.375, 207.473 353.691, 212.083 356.043 C 216.612 358.353, 221.755 358.547, 226.452 356.585 C 230.555 354.870, 232 352.415, 232 347.155 C 232 342.212, 228.459 338.857, 221.355 337.068 C 218.699 336.399, 215.958 335.380, 215.263 334.804 C 213.383 333.243, 213.735 330.212, 215.934 329.035 C 218.634 327.591, 220.644 327.737, 224.733 329.677 C 228.102 331.276, 228.332 331.266, 229.647 329.468 C 230.851 327.822, 230.775 327.330, 229.052 325.608 C 226.829 323.385, 217.068 322.346, 213.357 323.938 M 241.081 338.750 C 238.101 347.413, 235.453 355.096, 235.196 355.823 C 234.857 356.786, 235.630 357.059, 238.032 356.823 C 240.802 356.552, 241.523 355.936, 242.503 353 C 243.662 349.527, 243.722 349.498, 250.165 349.208 L 256.658 348.916 257.869 352.958 C 258.970 356.631, 259.385 357, 262.416 357 L 265.752 357 263.540 350.750 C 262.324 347.313, 259.631 339.663, 257.556 333.750 L 253.782 323 250.141 323 L 246.500 323 241.081 338.750 M 270 340 L 270 357 272.969 357 L 275.938 357 276.219 345.026 L 276.500 333.052 283.895 345.026 C 290.966 356.476, 291.437 357, 294.645 357 L 298 357 298 340 L 298 323 295.032 323 L 292.063 323 291.782 334.606 L 291.500 346.211 284.192 334.606 C 277.174 323.462, 276.746 323, 273.442 323 L 270 323 270 340 M 314 325.500 C 314 327.833, 314.333 328, 319 328 L 324 328 324 342.500 L 324 357 327 357 L 330 357 330 342.500 L 330 328 335 328 C 339.667 328, 340 327.833, 340 325.500 L 340 323 327 323 L 314 323 314 325.500 M 345 340 L 345 357 356.570 357 C 367.996 357, 368.135 356.972, 367.820 354.750 C 367.522 352.652, 366.942 352.480, 359.250 352.210 L 351 351.919 351 346.960 L 351 342 358 342 C 364.800 342, 365 341.929, 365 339.500 C 365 337.071, 364.800 337, 358 337 L 351 337 351 332.500 L 351 328 359 328 C 366.867 328, 367 327.958, 367 325.500 L 367 323 356 323 L 345 323 345 340 M 373 339.881 L 373 357 376 357 L 379 357 379 350 L 379 343 381.918 343 C 386.818 343, 387.814 343.932, 390.029 350.587 C 392.003 356.519, 392.382 357, 395.082 357 C 396.687 357, 398 356.620, 398 356.157 C 398 354.565, 394.011 343.718, 392.959 342.451 C 392.187 341.521, 392.585 340.506, 394.454 338.637 C 397.805 335.286, 397.879 330.134, 394.631 326.358 C 392.412 323.777, 391.656 323.577, 382.631 323.183 L 373 322.761 373 339.881 M 404.667 323.667 C 404.300 324.033, 404 331.683, 404 340.667 L 404 357 414.066 357 C 419.602 357, 425.040 356.514, 426.150 355.920 C 431.375 353.123, 431.647 342.163, 426.550 339.841 C 424.266 338.800, 424.257 338.743, 426.110 336.890 C 428.150 334.850, 428.599 329.988, 427.021 327.039 C 426.483 326.033, 424.616 324.713, 422.872 324.105 C 419.439 322.909, 405.754 322.579, 404.667 323.667 M 443.918 325.690 C 443.324 327.235, 440.894 334.125, 438.516 341 C 436.139 347.875, 433.864 354.321, 433.461 355.323 C 432.829 356.899, 433.178 357.103, 436.032 356.823 C 438.802 356.552, 439.523 355.936, 440.503 353 C 441.665 349.518, 441.705 349.498, 448.282 349.206 L 454.893 348.911 456.105 352.956 C 457.203 356.622, 457.626 357, 460.623 357 L 463.929 357 458.095 340.250 L 452.261 323.500 448.629 323.190 C 445.442 322.917, 444.864 323.224, 443.918 325.690 M 469 339.934 L 469 357 472.024 357 L 475.048 357 474.774 340.250 L 474.500 323.500 471.750 323.184 L 469 322.867 469 339.934 M 483 340 L 483 357 486 357 L 489 357 489.030 349.750 L 489.059 342.500 495.629 349.750 C 501.329 356.041, 502.648 357, 505.599 357 C 507.470 357, 509 356.722, 509 356.382 C 509 356.043, 505.791 352.206, 501.870 347.855 C 495.427 340.709, 494.879 339.780, 496.189 338.223 C 496.986 337.275, 499.970 333.765, 502.819 330.422 C 505.669 327.080, 508 324.042, 508 323.672 C 508 323.303, 506.695 323, 505.099 323 C 502.768 323, 500.906 324.426, 495.629 330.250 L 489.059 337.500 489.030 330.250 L 489 323 486 323 L 483 323 483 340 M 538.750 323.556 C 538.337 323.984, 538 331.683, 538 340.667 L 538 357 547.352 357 C 555.410 357, 557.174 356.686, 560.102 354.730 C 564.628 351.707, 566.997 346.720, 566.998 340.210 C 567 333.561, 564.107 327.624, 559.773 325.383 C 556.347 323.611, 540.062 322.196, 538.750 323.556 M 574 340 L 574 357 585.570 357 C 596.996 357, 597.135 356.972, 596.820 354.750 C 596.522 352.652, 595.942 352.480, 588.250 352.210 L 580 351.919 580 346.960 L 580 342 587 342 C 593.800 342, 594 341.929, 594 339.500 C 594 337.071, 593.800 337, 587 337 L 580 337 580 332.500 L 580 328 588 328 C 595.867 328, 596 327.958, 596 325.500 L 596 323 585 323 L 574 323 574 340 M 602 340 L 602 357 605 357 L 608 357 608.030 349.750 L 608.059 342.500 614.629 349.750 C 620.329 356.041, 621.648 357, 624.599 357 C 626.470 357, 628 356.722, 628 356.382 C 628 356.043, 624.791 352.206, 620.870 347.855 C 614.427 340.709, 613.879 339.780, 615.189 338.223 C 615.986 337.275, 618.970 333.765, 621.819 330.422 C 624.669 327.080, 627 324.042, 627 323.672 C 627 323.303, 625.695 323, 624.099 323 C 621.768 323, 619.906 324.426, 614.629 330.250 L 608.059 337.500 608.030 330.250 L 608 323 605 323 L 602 323 602 340 M 634.635 339.250 C 631.533 348.188, 628.996 355.837, 628.997 356.250 C 628.999 356.663, 630.332 357, 631.960 357 C 634.547 357, 635.071 356.496, 636.118 353 L 637.317 349 643.982 349 L 650.647 349 651.574 352.750 C 652.381 356.019, 652.917 356.540, 655.750 356.813 C 657.538 356.986, 659 356.815, 659 356.433 C 659 356.052, 656.444 348.374, 653.320 339.370 L 647.640 323 643.957 323 L 640.274 323 634.635 339.250 M 658 325.500 C 658 327.833, 658.333 328, 663 328 L 668 328 668 342.500 L 668 357 671 357 L 674 357 674 342.500 L 674 328 679 328 C 683.667 328, 684 327.833, 684 325.500 L 684 323 671 323 L 658 323 658 325.500 M 708.750 323.556 C 708.337 323.984, 708 331.683, 708 340.667 L 708 357 717.352 357 C 725.410 357, 727.174 356.686, 730.102 354.730 C 734.628 351.707, 736.997 346.720, 736.998 340.210 C 737 333.561, 734.107 327.624, 729.773 325.383 C 726.347 323.611, 710.062 322.196, 708.750 323.556 M 745.635 339.250 C 742.533 348.188, 739.996 355.837, 739.997 356.250 C 739.999 356.663, 741.332 357, 742.960 357 C 745.547 357, 746.071 356.496, 747.118 353 L 748.317 349 754.982 349 L 761.647 349 762.574 352.750 C 763.381 356.019, 763.917 356.540, 766.750 356.813 C 768.538 356.986, 770 356.815, 770 356.433 C 770 356.052, 767.444 348.374, 764.320 339.370 L 758.640 323 754.957 323 L 751.274 323 745.635 339.250 M 775 340 L 775 357 778 357 L 781 357 781 344.824 L 781 332.648 788.553 344.824 C 795.860 356.603, 796.219 357, 799.577 357 L 803.048 357 802.774 340.250 L 802.500 323.500 799.750 323.184 L 797 322.867 797 335.137 L 797 347.406 789.343 335.203 C 782.037 323.560, 781.532 323, 778.343 323 L 775 323 775 340 M 819 325.500 C 819 327.833, 819.333 328, 824 328 L 829 328 829 342.500 L 829 357 832 357 L 835 357 835 342.500 L 835 328 840 328 C 844.667 328, 845 327.833, 845 325.500 L 845 323 832 323 L 819 323 819 325.500 M 850 340 L 850 357 861 357 L 872 357 872 354.500 C 872 352.042, 871.867 352, 864 352 L 856 352 856 347 L 856 342 863 342 C 869.800 342, 870 341.929, 870 339.500 C 870 337.071, 869.800 337, 863 337 L 856 337 856 332.500 L 856 328 864 328 C 871.867 328, 872 327.958, 872 325.500 L 872 323 861 323 L 850 323 850 340 M 878 340 L 878 357 881 357 L 884 357 884 350 L 884 343 886.918 343 C 891.818 343, 892.814 343.932, 895.029 350.587 C 897.026 356.589, 897.357 357, 900.190 357 C 902.988 357, 903.166 356.792, 902.546 354.250 C 902.176 352.738, 900.801 349.134, 899.489 346.243 L 897.104 340.986 899.552 338.539 C 903.837 334.254, 902.250 326.838, 896.538 324.452 C 894.545 323.619, 889.854 323, 885.532 323 L 878 323 878 340 M 909 336.050 C 909 345.939, 909.379 349.833, 910.566 352.128 C 914.457 359.652, 928.804 359.807, 933.672 352.378 C 935.207 350.036, 935.500 347.494, 935.500 336.544 L 935.500 323.500 932.750 323.184 L 930 322.867 930 333.190 C 930 343.907, 928.943 349.784, 926.768 351.164 C 926.071 351.607, 923.838 351.976, 921.807 351.985 C 915.900 352.009, 915 349.800, 915 335.277 L 915 323 912 323 L 909 323 909 336.050 M 944 339.878 L 944 357 947 357 L 950 357 950 351 L 950 345 953.750 344.994 C 963.206 344.980, 968 341.314, 968 334.097 C 968 326.295, 964.473 323.773, 952.750 323.190 L 944 322.755 944 339.878 M 974 339.864 L 974 357 983.050 357 C 993.314 357, 996.570 355.814, 1000.171 350.765 C 1002.078 348.092, 1002.499 346.232, 1002.496 340.500 C 1002.490 327.876, 998.187 323.993, 983.346 323.216 L 974 322.727 974 339.864 M 1011.635 339.250 C 1008.533 348.188, 1005.996 355.837, 1005.997 356.250 C 1005.999 356.663, 1007.332 357, 1008.960 357 C 1011.547 357, 1012.071 356.496, 1013.118 353 L 1014.317 349 1020.982 349 L 1027.647 349 1028.574 352.750 C 1029.381 356.019, 1029.917 356.540, 1032.750 356.813 C 1034.537 356.986, 1036 356.815, 1036 356.433 C 1036 356.052, 1033.444 348.374, 1030.320 339.370 L 1024.640 323 1020.957 323 L 1017.274 323 1011.635 339.250 M 1034.695 323.638 C 1034.313 324.021, 1034 325.158, 1034 326.167 C 1034 327.700, 1034.818 328, 1039 328 L 1044 328 1044 342.500 L 1044 357 1047.500 357 L 1051 357 1051 342.500 L 1051 328 1056.070 328 C 1060.755 328, 1061.115 327.829, 1060.820 325.750 C 1060.510 323.570, 1060.107 323.491, 1047.945 323.222 C 1041.040 323.068, 1035.077 323.256, 1034.695 323.638 M 1065.667 323.667 C 1065.300 324.033, 1065 331.683, 1065 340.667 L 1065 357 1076.500 357 L 1088 357 1088 354.500 C 1088 352.042, 1087.867 352, 1080 352 L 1072 352 1072 347 L 1072 342 1079 342 C 1085.800 342, 1086 341.929, 1086 339.500 C 1086 337.071, 1085.800 337, 1079 337 L 1072 337 1072 332.500 L 1072 328 1080 328 C 1087.867 328, 1088 327.958, 1088 325.500 L 1088 323 1077.167 323 C 1071.208 323, 1066.033 323.300, 1065.667 323.667 M 107.308 328.972 C 103.213 330.692, 101.727 334.369, 102.190 341.636 C 102.535 347.054, 103.033 348.609, 104.917 350.134 C 107.195 351.978, 112.316 352.583, 115.455 351.379 C 120.224 349.549, 121.777 336.131, 117.750 331.555 C 115.245 328.708, 110.645 327.570, 107.308 328.972 M 183.206 329.048 C 179.843 330.397, 177.653 336.426, 178.360 342.390 C 179.145 349.016, 181.982 352, 187.500 352 C 192.841 352, 195.755 349.063, 196.611 342.818 C 198.056 332.279, 191.622 325.670, 183.206 329.048 M 379 332.873 L 379 338 383.066 338 C 388.263 338, 391.004 336.517, 390.985 333.715 C 390.959 329.973, 389.420 328.747, 384.107 328.236 L 379 327.746 379 332.873 M 411 332.500 L 411 337 415.300 337 C 420.044 337, 422 335.686, 422 332.500 C 422 329.314, 420.044 328, 415.300 328 L 411 328 411 332.500 M 545 339.871 L 545 352 548.935 352 C 555.013 352, 557.912 350.454, 559.654 346.286 C 561.692 341.408, 560.784 334.319, 557.736 331.311 C 556.292 329.886, 553.641 328.864, 550.250 328.424 L 545 327.742 545 339.871 M 715 339.871 L 715 352 718.935 352 C 725.013 352, 727.912 350.454, 729.654 346.286 C 731.692 341.408, 730.784 334.319, 727.736 331.311 C 726.292 329.886, 723.641 328.864, 720.250 328.424 L 715 327.742 715 339.871 M 884 332.870 L 884 338 888.429 338 C 893.162 338, 896 336.145, 896 333.051 C 896 330.381, 893.558 328.817, 888.499 328.247 L 884 327.740 884 332.870 M 950 334 L 950 340.260 954.499 339.753 C 960.008 339.132, 962 337.604, 962 334 C 962 330.396, 960.008 328.868, 954.499 328.247 L 950 327.740 950 334 M 980 339.871 L 980 352 984.550 352 C 990.032 352, 994.592 349.838, 995.597 346.761 C 996.690 343.416, 996.402 335.619, 995.095 333.177 C 993.563 330.314, 991.329 329.245, 985.173 328.429 L 980 327.742 980 339.871 M 446.165 335.976 C 444.974 339.503, 444 342.751, 444 343.194 C 444 343.637, 446.055 344, 448.567 344 C 453.686 344, 453.546 344.910, 450.019 334.532 L 448.331 329.564 446.165 335.976 M 249.815 331.551 C 248.603 333.646, 245.829 343.162, 246.294 343.627 C 246.568 343.901, 248.567 343.985, 250.738 343.813 L 254.683 343.500 252.524 337.051 C 251.336 333.504, 250.117 331.029, 249.815 331.551 M 641.294 337.503 L 639.181 344 643.591 344 C 646.016 344, 648 343.630, 648 343.178 C 648 341.872, 644.803 332.577, 644.070 331.753 C 643.705 331.342, 642.455 333.930, 641.294 337.503 M 752.294 337.503 L 750.181 344 754.591 344 C 757.016 344, 759 343.630, 759 343.178 C 759 341.872, 755.803 332.577, 755.070 331.753 C 754.705 331.342, 753.455 333.930, 752.294 337.503 M 1018.294 337.503 L 1016.181 344 1020.591 344 C 1023.016 344, 1025 343.630, 1025 343.178 C 1025 341.872, 1021.803 332.577, 1021.070 331.753 C 1020.705 331.342, 1019.455 333.930, 1018.294 337.503 M 411 347 L 411 352 416.300 352 C 422.210 352, 424 350.838, 424 347 C 424 343.162, 422.210 342, 416.300 342 L 411 342 411 347 M 514.750 351.080 C 512.580 352.344, 512.505 354.795, 514.564 357.071 C 515.998 358.655, 515.904 359.008, 513.439 361.293 C 511.960 362.665, 511.058 364.285, 511.434 364.893 C 513.636 368.456, 520 361.940, 520 356.123 C 520 354.075, 519.460 351.860, 518.800 351.200 C 517.367 349.767, 517.022 349.757, 514.750 351.080 M 684.750 351.080 C 682.580 352.344, 682.505 354.795, 684.564 357.071 C 685.998 358.655, 685.904 359.008, 683.439 361.293 C 681.960 362.665, 681.058 364.285, 681.434 364.893 C 683.636 368.456, 690 361.940, 690 356.123 C 690 354.075, 689.460 351.860, 688.800 351.200 C 687.367 349.767, 687.022 349.757, 684.750 351.080" stroke="none" fill="#fcfcfc" fill-rule="evenodd"/></svg>